<svg width="60" height="60" viewBox="0 0 60 60" fill="none" xmlns="http://www.w3.org/2000/svg">
<g clip-path="url(#clip0_7_1426)">
<path d="M17.5 20C19.5711 20 21.25 18.8807 21.25 17.5C21.25 16.1193 19.5711 15 17.5 15C15.4289 15 13.75 16.1193 13.75 17.5C13.75 18.8807 15.4289 20 17.5 20Z" fill="#39285E"/>
<path d="M31.25 23.75C31.25 26.4695 30.4436 29.1279 28.9327 31.3891C27.4218 33.6503 25.2744 35.4126 22.7619 36.4533C20.2494 37.494 17.4848 37.7663 14.8175 37.2358C12.1503 36.7053 9.70026 35.3957 7.77729 33.4727C5.85432 31.5497 4.54476 29.0997 4.01421 26.4325C3.48366 23.7653 3.75596 21.0006 4.79666 18.4881C5.83737 15.9756 7.59974 13.8282 9.86092 12.3173C12.1221 10.8064 14.7805 10 17.5 10C19.306 9.99902 21.0944 10.354 22.7631 11.0447C24.4317 11.7353 25.9479 12.7481 27.2249 14.0251C28.5019 15.3021 29.5147 16.8183 30.2054 18.4869C30.896 20.1556 31.251 21.944 31.25 23.75ZM21.25 17.5C21.25 16.125 19.575 15 17.5 15C15.425 15 13.75 16.125 13.75 17.5C13.75 18.875 15.425 20 17.5 20C19.575 20 21.25 18.875 21.25 17.5Z" fill="#6F60BA"/>
<path d="M42.5 28.75C44.5711 28.75 46.25 27.6307 46.25 26.25C46.25 24.8693 44.5711 23.75 42.5 23.75C40.4289 23.75 38.75 24.8693 38.75 26.25C38.75 27.6307 40.4289 28.75 42.5 28.75Z" fill="#39285E"/>
<path d="M42.5 18.75C45.2195 18.75 47.8779 19.5564 50.1391 21.0673C52.4003 22.5782 54.1626 24.7256 55.2033 27.2381C56.244 29.7506 56.5163 32.5153 55.9858 35.1825C55.4553 37.8497 54.1457 40.2997 52.2227 42.2227C50.2997 44.1457 47.8497 45.4553 45.1825 45.9858C42.5153 46.5163 39.7506 46.244 37.2381 45.2033C34.7256 44.1626 32.5782 42.4003 31.0673 40.1391C29.5564 37.8779 28.75 35.2195 28.75 32.5C28.749 30.694 29.104 28.9056 29.7946 27.2369C30.4853 25.5683 31.4981 24.0521 32.7751 22.7751C34.0521 21.4981 35.5683 20.4853 37.2369 19.7947C38.9056 19.104 40.694 18.749 42.5 18.75ZM46.25 26.25C46.25 24.875 44.575 23.75 42.5 23.75C40.425 23.75 38.75 24.875 38.75 26.25C38.75 27.625 40.425 28.75 42.5 28.75C44.575 28.75 46.25 27.625 46.25 26.25Z" fill="#7E6DD4"/>
<path d="M10 48.75C11.3807 48.75 12.5 47.0711 12.5 45C12.5 42.9289 11.3807 41.25 10 41.25C8.61929 41.25 7.5 42.9289 7.5 45C7.5 47.0711 8.61929 48.75 10 48.75Z" fill="#39285E"/>
<path d="M17.5 31.25C20.2195 31.25 22.8779 32.0564 25.1391 33.5673C27.4003 35.0782 29.1626 37.2256 30.2033 39.7381C31.244 42.2506 31.5163 45.0153 30.9858 47.6825C30.4553 50.3497 29.1457 52.7997 27.2227 54.7227C25.2997 56.6457 22.8497 57.9553 20.1825 58.4858C17.5153 59.0163 14.7506 58.744 12.2381 57.7033C9.72562 56.6626 7.57816 54.9003 6.06729 52.6391C4.55643 50.3779 3.75 47.7195 3.75 45C3.74902 43.194 4.104 41.4056 4.79465 39.7369C5.4853 38.0683 6.49808 36.5521 7.77509 35.2751C9.05209 33.9981 10.5683 32.9853 12.2369 32.2946C13.9056 31.604 15.694 31.249 17.5 31.25ZM12.5 45C12.5 42.925 11.375 41.25 10 41.25C8.625 41.25 7.5 42.925 7.5 45C7.5 47.075 8.625 48.75 10 48.75C11.375 48.75 12.5 47.075 12.5 45Z" fill="#7E6DD4"/>
<path d="M31.25 23.6325C31.6475 23.7125 31.875 23.75 31.875 23.75L31.9088 23.7288C32.1213 23.4713 32.3512 23.2287 32.5825 22.9875C33.4802 21.3453 33.8856 19.4791 33.75 17.6125C33.75 17.6125 33.75 4.3125 20.625 1.25C19.5697 4.07592 18.9787 7.054 18.875 10.0688C22.2475 10.4051 25.3767 11.9761 27.661 14.4799C29.9453 16.9836 31.2236 20.2434 31.25 23.6325Z" fill="#4E8C00"/>
<path d="M42.5 18.75C46.0678 18.7479 49.4955 20.1382 52.0538 22.625C52.9633 21.8274 53.6954 20.848 54.2029 19.7499C54.7103 18.6518 54.9819 17.4595 55 16.25C55 6.25 52.5 1.25 52.5 1.25C48.3105 6.72853 44.6681 12.6045 41.625 18.7938C41.915 18.7763 42.205 18.75 42.5 18.75Z" fill="#63B300"/>
<path d="M52.5 1.25C36.3175 4.7175 35.1 18.8638 35.0087 20.9763C36.9885 19.6893 39.268 18.9374 41.625 18.7938C44.668 12.6045 48.3104 6.72853 52.5 1.25Z" fill="#4E8C00"/>
<path d="M42.5 28.75C44.5711 28.75 46.25 27.6307 46.25 26.25C46.25 24.8693 44.5711 23.75 42.5 23.75C40.4289 23.75 38.75 24.8693 38.75 26.25C38.75 27.6307 40.4289 28.75 42.5 28.75Z" fill="#39285E"/>
<path d="M42.5 18.75C45.2195 18.75 47.8779 19.5564 50.1391 21.0673C52.4003 22.5782 54.1626 24.7256 55.2033 27.2381C56.244 29.7506 56.5163 32.5153 55.9858 35.1825C55.4553 37.8497 54.1457 40.2997 52.2227 42.2227C50.2997 44.1457 47.8497 45.4553 45.1825 45.9858C42.5153 46.5163 39.7506 46.244 37.2381 45.2033C34.7256 44.1626 32.5782 42.4003 31.0673 40.1391C29.5564 37.8779 28.75 35.2195 28.75 32.5C28.749 30.694 29.104 28.9056 29.7946 27.2369C30.4853 25.5683 31.4981 24.0521 32.7751 22.7751C34.0521 21.4981 35.5683 20.4853 37.2369 19.7947C38.9056 19.104 40.694 18.749 42.5 18.75ZM46.25 26.25C46.25 24.875 44.575 23.75 42.5 23.75C40.425 23.75 38.75 24.875 38.75 26.25C38.75 27.625 40.425 28.75 42.5 28.75C44.575 28.75 46.25 27.625 46.25 26.25Z" fill="#7E6DD4"/>
<path d="M42.5 18.75C39.7805 18.75 37.1221 19.5564 34.8609 21.0673C32.5997 22.5782 30.8374 24.7256 29.7967 27.2381C28.756 29.7506 28.4837 32.5153 29.0142 35.1825C29.5448 37.8497 30.8543 40.2997 32.7773 42.2227C34.7003 44.1457 37.1503 45.4553 39.8175 45.9858C42.4848 46.5163 45.2494 46.244 47.7619 45.2033C50.2744 44.1626 52.4218 42.4003 53.9327 40.1391C55.4436 37.8779 56.25 35.2195 56.25 32.5C56.251 30.694 55.896 28.9056 55.2054 27.2369C54.5147 25.5683 53.5019 24.0521 52.2249 22.7751C50.9479 21.4981 49.4317 20.4853 47.7631 19.7947C46.0944 19.104 44.306 18.749 42.5 18.75ZM42.5 40C35.5913 40 30 35.5275 30 30C30 24.4725 35.5913 20 42.5 20C49.4088 20 55 24.4725 55 30C55 35.5275 49.4088 40 42.5 40Z" fill="#5F4A9E"/>
<path d="M42.5 31.25C47.3325 31.25 51.25 28.7316 51.25 25.625C51.25 22.5184 47.3325 20 42.5 20C37.6675 20 33.75 22.5184 33.75 25.625C33.75 28.7316 37.6675 31.25 42.5 31.25Z" fill="#9883FF"/>
<path d="M42.5 30C45.2614 30 47.5 28.3211 47.5 26.25C47.5 24.1789 45.2614 22.5 42.5 22.5C39.7386 22.5 37.5 24.1789 37.5 26.25C37.5 28.3211 39.7386 30 42.5 30Z" fill="#5F4A9E"/>
<path d="M42.5 28.75C44.5711 28.75 46.25 27.6307 46.25 26.25C46.25 24.8693 44.5711 23.75 42.5 23.75C40.4289 23.75 38.75 24.8693 38.75 26.25C38.75 27.6307 40.4289 28.75 42.5 28.75Z" fill="#39285E"/>
<path d="M42.5 25C43.2189 24.9345 43.9415 25.0762 44.5824 25.4085C45.2233 25.7408 45.7555 26.2497 46.1163 26.875C46.1997 26.6769 46.2451 26.4649 46.25 26.25C46.25 24.875 44.575 23.75 42.5 23.75C40.425 23.75 38.75 24.875 38.75 26.25C38.7549 26.4649 38.8003 26.6769 38.8838 26.875C39.2445 26.2497 39.7767 25.7408 40.4176 25.4085C41.0585 25.0762 41.7811 24.9345 42.5 25Z" fill="#261647"/>
<path d="M51.9075 27.5062C51.8175 27.5193 51.7299 27.5454 51.6475 27.5837C50.9525 27.8962 50.5425 28.8337 50.0475 29.3825C48.6896 30.8842 46.9141 31.9463 44.9487 32.4325C44.732 32.4501 44.5213 32.5124 44.3298 32.6154C44.1384 32.7184 43.9703 32.86 43.8362 33.0312C43.7534 33.229 43.7375 33.4484 43.791 33.656C43.8444 33.8637 43.9644 34.0481 44.1325 34.1812C44.4742 34.4358 44.8736 34.6019 45.295 34.665C46.8654 35.1032 48.5253 35.1067 50.0975 34.675C50.8505 34.408 51.5408 33.9897 52.126 33.4458C52.7112 32.9019 53.1788 32.244 53.5 31.5125C53.7007 31.0437 53.7757 30.5307 53.7176 30.0241C53.6595 29.5176 53.4703 29.0349 53.1687 28.6237C52.855 28.1062 52.5075 27.4262 51.9075 27.5062Z" fill="#9883FF"/>
<path d="M17.5 20C19.5711 20 21.25 18.8807 21.25 17.5C21.25 16.1193 19.5711 15 17.5 15C15.4289 15 13.75 16.1193 13.75 17.5C13.75 18.8807 15.4289 20 17.5 20Z" fill="#39285E"/>
<path d="M31.25 23.75C31.25 26.4695 30.4436 29.1279 28.9327 31.3891C27.4218 33.6503 25.2744 35.4126 22.7619 36.4533C20.2494 37.494 17.4848 37.7663 14.8175 37.2358C12.1503 36.7053 9.70026 35.3957 7.77729 33.4727C5.85432 31.5497 4.54476 29.0997 4.01421 26.4325C3.48366 23.7653 3.75596 21.0006 4.79666 18.4881C5.83737 15.9756 7.59974 13.8282 9.86092 12.3173C12.1221 10.8064 14.7805 10 17.5 10C19.306 9.99902 21.0944 10.354 22.7631 11.0447C24.4317 11.7353 25.9479 12.7481 27.2249 14.0251C28.5019 15.3021 29.5147 16.8183 30.2054 18.4869C30.896 20.1556 31.251 21.944 31.25 23.75ZM21.25 17.5C21.25 16.125 19.575 15 17.5 15C15.425 15 13.75 16.125 13.75 17.5C13.75 18.875 15.425 20 17.5 20C19.575 20 21.25 18.875 21.25 17.5Z" fill="#6F60BA"/>
<path d="M17.5 10C14.7805 10 12.1221 10.8064 9.86092 12.3173C7.59974 13.8282 5.83737 15.9756 4.79666 18.4881C3.75596 21.0006 3.48366 23.7653 4.01421 26.4325C4.54476 29.0997 5.85432 31.5497 7.77729 33.4727C9.70026 35.3957 12.1503 36.7053 14.8175 37.2358C17.4848 37.7663 20.2494 37.494 22.7619 36.4533C25.2744 35.4126 27.4218 33.6503 28.9327 31.3891C30.4436 29.1279 31.25 26.4695 31.25 23.75C31.251 21.944 30.896 20.1556 30.2054 18.4869C29.5147 16.8183 28.5019 15.3021 27.2249 14.0251C25.9479 12.7481 24.4317 11.7353 22.7631 11.0447C21.0944 10.354 19.306 9.99902 17.5 10ZM17.5 31.25C10.5913 31.25 5.00001 26.7775 5.00001 21.25C5.00001 15.7225 10.5913 11.25 17.5 11.25C24.4088 11.25 30 15.7225 30 21.25C30 26.7775 24.4088 31.25 17.5 31.25Z" fill="#483584"/>
<path d="M17.5 22.5C22.3325 22.5 26.25 19.9816 26.25 16.875C26.25 13.7684 22.3325 11.25 17.5 11.25C12.6675 11.25 8.75 13.7684 8.75 16.875C8.75 19.9816 12.6675 22.5 17.5 22.5Z" fill="#9883FF"/>
<path d="M17.5 21.25C20.2614 21.25 22.5 19.5711 22.5 17.5C22.5 15.4289 20.2614 13.75 17.5 13.75C14.7386 13.75 12.5 15.4289 12.5 17.5C12.5 19.5711 14.7386 21.25 17.5 21.25Z" fill="#5F4A9E"/>
<path d="M17.5 20C19.5711 20 21.25 18.8807 21.25 17.5C21.25 16.1193 19.5711 15 17.5 15C15.4289 15 13.75 16.1193 13.75 17.5C13.75 18.8807 15.4289 20 17.5 20Z" fill="#39285E"/>
<path d="M17.5 16.25C18.2189 16.1845 18.9415 16.3262 19.5824 16.6585C20.2233 16.9908 20.7555 17.4997 21.1162 18.125C21.1997 17.9269 21.2451 17.7149 21.25 17.5C21.25 16.125 19.575 15 17.5 15C15.425 15 13.75 16.125 13.75 17.5C13.7549 17.7149 13.8003 17.9269 13.8838 18.125C14.2445 17.4997 14.7767 16.9908 15.4176 16.6585C16.0585 16.3262 16.7811 16.1845 17.5 16.25Z" fill="#261647"/>
<path d="M26.9075 18.7562C26.8175 18.7693 26.7299 18.7954 26.6475 18.8337C25.9525 19.1462 25.5425 20.0837 25.0475 20.6325C23.6896 22.1342 21.9141 23.1963 19.9487 23.6825C19.732 23.7001 19.5213 23.7624 19.3298 23.8654C19.1384 23.9684 18.9703 24.11 18.8362 24.2812C18.7534 24.479 18.7375 24.6984 18.791 24.906C18.8444 25.1137 18.9644 25.2981 19.1325 25.4312C19.4742 25.6858 19.8735 25.8519 20.295 25.915C21.8654 26.3532 23.5253 26.3567 25.0975 25.925C25.8505 25.658 26.5408 25.2397 27.126 24.6958C27.7112 24.1519 28.1788 23.494 28.5 22.7625C28.7007 22.2937 28.7757 21.7807 28.7176 21.2741C28.6595 20.7676 28.4703 20.2849 28.1687 19.8737C27.855 19.3562 27.5075 18.6762 26.9075 18.7562Z" fill="#7E6DD4"/>
<path d="M8.76873 34.375C11.2271 32.3496 14.3147 31.2445 17.5 31.25C15.0253 31.2674 12.5862 30.6598 10.4087 29.4838C9.07331 30.2829 7.8831 31.3028 6.88873 32.5C7.45402 33.1837 8.08357 33.8116 8.76873 34.375Z" fill="#39285E"/>
<path d="M29.9838 20.9912C29.5472 21.2739 29.1269 21.5811 28.725 21.9112C28.6975 22.2049 28.6233 22.4923 28.505 22.7625C27.9143 24.0765 26.8613 25.1277 25.5463 25.7162C24.9246 26.8133 24.4577 27.9911 24.1588 29.2162C22.0468 28.0449 19.6629 27.4524 17.2483 27.4987C14.8337 27.5451 12.4742 28.2285 10.4088 29.48C12.4975 30.5888 14.8171 31.1924 17.1814 31.2424C19.5457 31.2923 21.8888 30.7871 24.0225 29.7675C24.2138 29.6737 24.4075 29.5812 24.5913 29.48C26.1511 28.7233 27.4773 27.5589 28.4295 26.1101C29.3816 24.6613 29.9243 22.982 30 21.25C30 21.1625 29.9863 21.0775 29.9838 20.9912Z" fill="#483584"/>
<path d="M30.8413 20.47C30.5475 20.6325 30.2625 20.8087 29.9837 20.9912C29.9837 21.0775 30 21.1625 30 21.25C29.925 22.9826 29.3826 24.6628 28.4304 26.1123C27.4782 27.5618 26.1516 28.7268 24.5913 29.4837C24.4075 29.585 24.2163 29.6775 24.0225 29.7712C21.9895 30.755 19.7585 31.2608 17.5 31.25C20.6821 31.2626 23.7638 32.3656 26.2313 34.375C26.9147 33.8113 27.5425 33.1834 28.1063 32.5C28.3488 32.2062 28.5738 31.8975 28.7913 31.5837C28.9494 29.1018 29.7818 26.7101 31.1987 24.6662C31.2188 24.3625 31.245 24.0587 31.245 23.75C31.2425 22.6444 31.1069 21.5431 30.8413 20.47Z" fill="#39285E"/>
<path d="M28.5 22.7625C28.6183 22.4923 28.6925 22.2049 28.72 21.9113C27.4393 22.9772 26.3623 24.2663 25.5413 25.7163C26.8563 25.1278 27.9093 24.0766 28.5 22.7625Z" fill="#5F4A9E"/>
<path d="M10 48.75C11.3807 48.75 12.5 47.0711 12.5 45C12.5 42.9289 11.3807 41.25 10 41.25C8.61929 41.25 7.5 42.9289 7.5 45C7.5 47.0711 8.61929 48.75 10 48.75Z" fill="#39285E"/>
<path d="M17.5 31.25C20.2195 31.25 22.8779 32.0564 25.1391 33.5673C27.4003 35.0782 29.1626 37.2256 30.2033 39.7381C31.244 42.2506 31.5163 45.0153 30.9858 47.6825C30.4553 50.3497 29.1457 52.7997 27.2227 54.7227C25.2997 56.6457 22.8497 57.9553 20.1825 58.4858C17.5153 59.0163 14.7506 58.744 12.2381 57.7033C9.72562 56.6626 7.57816 54.9003 6.06729 52.6391C4.55643 50.3779 3.75 47.7195 3.75 45C3.74902 43.194 4.104 41.4056 4.79465 39.7369C5.4853 38.0683 6.49808 36.5521 7.77509 35.2751C9.05209 33.9981 10.5683 32.9853 12.2369 32.2946C13.9056 31.604 15.694 31.249 17.5 31.25ZM12.5 45C12.5 42.925 11.375 41.25 10 41.25C8.625 41.25 7.5 42.925 7.5 45C7.5 47.075 8.625 48.75 10 48.75C11.375 48.75 12.5 47.075 12.5 45Z" fill="#7E6DD4"/>
<path d="M3.75 45C3.75 47.7195 4.55643 50.3779 6.06729 52.6391C7.57816 54.9003 9.72562 56.6626 12.2381 57.7033C14.7506 58.744 17.5153 59.0163 20.1825 58.4858C22.8497 57.9553 25.2997 56.6457 27.2227 54.7227C29.1457 52.7997 30.4553 50.3497 30.9858 47.6825C31.5163 45.0153 31.244 42.2506 30.2033 39.7381C29.1626 37.2256 27.4003 35.0782 25.1391 33.5673C22.8779 32.0564 20.2195 31.25 17.5 31.25C15.694 31.249 13.9056 31.604 12.2369 32.2946C10.5683 32.9853 9.05209 33.9981 7.77509 35.2751C6.49808 36.5521 5.4853 38.0683 4.79465 39.7369C4.104 41.4056 3.74902 43.194 3.75 45ZM25 45C25 51.9088 20.5275 57.5 15 57.5C9.4725 57.5 5 51.9088 5 45C5 38.0913 9.4725 32.5 15 32.5C20.5275 32.5 25 38.0913 25 45Z" fill="#5F4A9E"/>
<path d="M10.625 53.75C13.7316 53.75 16.25 49.8325 16.25 45C16.25 40.1675 13.7316 36.25 10.625 36.25C7.5184 36.25 5 40.1675 5 45C5 49.8325 7.5184 53.75 10.625 53.75Z" fill="#9883FF"/>
<path d="M10 50C12.0711 50 13.75 47.7614 13.75 45C13.75 42.2386 12.0711 40 10 40C7.92893 40 6.25 42.2386 6.25 45C6.25 47.7614 7.92893 50 10 50Z" fill="#5F4A9E"/>
<path d="M10 48.75C11.3807 48.75 12.5 47.0711 12.5 45C12.5 42.9289 11.3807 41.25 10 41.25C8.61929 41.25 7.5 42.9289 7.5 45C7.5 47.0711 8.61929 48.75 10 48.75Z" fill="#39285E"/>
<path d="M8.75 45C8.68446 44.2811 8.82623 43.5585 9.15851 42.9176C9.49079 42.2767 9.99969 41.7445 10.625 41.3837C10.4269 41.3003 10.2149 41.2549 10 41.25C8.625 41.25 7.5 42.925 7.5 45C7.5 47.075 8.625 48.75 10 48.75C10.2149 48.7451 10.4269 48.6997 10.625 48.6163C9.99969 48.2555 9.49079 47.7233 9.15851 47.0824C8.82623 46.4415 8.68446 45.7189 8.75 45Z" fill="#261647"/>
<path d="M13.5 35.5088C13.5133 35.5987 13.5394 35.6863 13.5775 35.7688C13.8913 36.4638 14.835 36.8738 15.3775 37.3675C16.8785 38.7263 17.9401 40.5021 18.4263 42.4675C18.4439 42.6844 18.5064 42.8952 18.6097 43.0867C18.7129 43.2781 18.8548 43.4461 19.0263 43.58C19.2238 43.6628 19.443 43.6786 19.6505 43.6252C19.8579 43.5717 20.0421 43.4518 20.175 43.2838C20.4296 42.942 20.5957 42.5427 20.6588 42.1213C21.0973 40.5505 21.1007 38.8901 20.6688 37.3175C20.4024 36.5638 19.9843 35.8726 19.4404 35.2868C18.8965 34.7009 18.2382 34.2328 17.5063 33.9113C17.0375 33.7106 16.5245 33.6356 16.0179 33.6937C15.5113 33.7517 15.0287 33.9409 14.6175 34.2425C14.1063 34.5613 13.4263 34.9075 13.5 35.5088Z" fill="#9883FF"/>
<path d="M31.25 23.6325C31.6475 23.7125 31.875 23.75 31.875 23.75L31.9088 23.7288C32.1213 23.4713 32.3512 23.2287 32.5825 22.9875C33.4802 21.3453 33.8856 19.4791 33.75 17.6125C33.75 17.6125 33.75 4.3125 20.625 1.25C19.5697 4.07592 18.9787 7.054 18.875 10.0688C22.2475 10.4051 25.3767 11.9761 27.661 14.4799C29.9453 16.9836 31.2236 20.2434 31.25 23.6325Z" fill="#4E8C00"/>
<path d="M42.5 18.75C46.0678 18.7479 49.4955 20.1382 52.0538 22.625C52.9633 21.8274 53.6954 20.848 54.2029 19.7499C54.7103 18.6518 54.9819 17.4595 55 16.25C55 6.25 52.5 1.25 52.5 1.25C48.3105 6.72853 44.6681 12.6045 41.625 18.7938C41.915 18.7763 42.205 18.75 42.5 18.75Z" fill="#63B300"/>
<path d="M52.5 1.25C36.3175 4.7175 35.1 18.8638 35.0087 20.9763C36.9885 19.6893 39.268 18.9374 41.625 18.7938C44.668 12.6045 48.3104 6.72853 52.5 1.25Z" fill="#4E8C00"/>
<path d="M44.2188 13.875C43.3438 15.4225 42.4688 17.0662 41.625 18.8C41.915 18.7825 42.205 18.7562 42.5 18.7562C46.0678 18.7542 49.4955 20.1444 52.0538 22.6312C52.8491 21.8832 53.52 21.0131 54.0413 20.0537C52.9541 18.3695 51.5114 16.9436 49.8145 15.8762C48.1176 14.8088 46.2077 14.1258 44.2188 13.875Z" fill="#4E8C00"/>
<path d="M41.625 18.7938C42.475 17.06 43.35 15.4188 44.2187 13.8688C43.6488 13.7937 43.0748 13.7541 42.5 13.75C40.2717 13.7489 38.0768 14.2921 36.1062 15.3325C35.492 17.1568 35.1229 19.0547 35.0087 20.9763C36.9885 19.6893 39.268 18.9374 41.625 18.7938Z" fill="#3F7000"/>
<path d="M19.5 5.26501C19.192 6.85171 18.9833 8.45608 18.875 10.0688C22.2475 10.4051 25.3767 11.9761 27.661 14.4799C29.9453 16.9836 31.2236 20.2434 31.25 23.6325C31.6475 23.7125 31.875 23.75 31.875 23.75L31.9088 23.7288C32.1213 23.4713 32.3512 23.2288 32.5825 22.9875C33.4802 21.3453 33.8856 19.4792 33.75 17.6125C33.6944 16.0801 33.4466 14.5607 33.0125 13.09C29.703 8.81723 24.8532 6.00874 19.5 5.26501Z" fill="#3F7000"/>
<path d="M52.0283 27.0516C52.8338 26.2462 52.5777 24.6842 51.4564 23.5629C50.3351 22.4416 48.7732 22.1856 47.9677 22.9911C47.1623 23.7965 47.4183 25.3585 48.5396 26.4797C49.6609 27.601 51.2229 27.8571 52.0283 27.0516Z" fill="#F6FAFD"/>
<path d="M17.0195 39.5404C17.825 38.7349 17.569 37.173 16.4477 36.0517C15.3264 34.9304 13.7644 34.6744 12.959 35.4798C12.1535 36.2853 12.4096 37.8472 13.5309 38.9685C14.6522 40.0898 16.2141 40.3458 17.0195 39.5404Z" fill="#F6FAFD"/>
<path d="M35.7746 34.5466C36.58 33.7412 36.324 32.1792 35.2027 31.0579C34.0814 29.9366 32.5194 29.6806 31.714 30.4861C30.9085 31.2915 31.1646 32.8534 32.2859 33.9747C33.4072 35.096 34.9691 35.3521 35.7746 34.5466Z" fill="#C4B0FF"/>
<path d="M51.0112 31.0359C51.4139 30.6332 51.2861 29.8524 50.7257 29.292C50.1653 28.7316 49.3845 28.6038 48.9818 29.0065C48.5791 29.4092 48.7069 30.19 49.2673 30.7504C49.8277 31.3108 50.6085 31.4386 51.0112 31.0359Z" fill="#F6FAFD"/>
<path d="M26.0112 19.776C26.4139 19.3733 26.2861 18.5925 25.7257 18.0321C25.1653 17.4717 24.3845 17.3439 23.9818 17.7466C23.5791 18.1494 23.7069 18.9301 24.2673 19.4905C24.8277 20.0509 25.6085 20.1788 26.0112 19.776Z" fill="#F6FAFD"/>
<path d="M25.1874 16.1437C25.389 15.9421 25.3253 15.5515 25.0451 15.2713C24.7649 14.9911 24.3743 14.9274 24.1727 15.129C23.9711 15.3306 24.0348 15.7212 24.315 16.0014C24.5952 16.2816 24.9858 16.3453 25.1874 16.1437Z" fill="#F6FAFD"/>
<path d="M57.25 29.7737L54.7912 30.2262C54.9291 30.9763 54.9989 31.7373 55 32.5C55.0023 34.503 54.5232 36.4772 53.6031 38.2564C52.683 40.0356 51.3488 41.5676 49.7128 42.7234C48.0769 43.8792 46.1872 44.625 44.2028 44.8978C42.2185 45.1707 40.1976 44.9627 38.3104 44.2913C36.4233 43.62 34.7251 42.505 33.3589 41.0402C31.9927 39.5754 30.9985 37.8037 30.4601 35.8744C29.9216 33.9451 29.8547 31.9147 30.265 29.9541C30.6753 27.9935 31.5507 26.1603 32.8175 24.6087C33.0985 24.3704 33.3457 24.0949 33.5525 23.79C35.009 22.2892 36.8192 21.1783 38.8169 20.5593C40.8146 19.9403 42.9357 19.833 44.9857 20.2472C47.0356 20.6614 48.9487 21.5839 50.5492 22.93C52.1498 24.2761 53.3867 26.0027 54.1462 27.9512L56.4762 27.0412C55.8419 25.4224 54.9332 23.925 53.79 22.615C55.367 20.8694 56.2431 18.6024 56.25 16.25C56.25 6.07122 53.725 0.906219 53.625 0.691219C53.5008 0.44175 53.2968 0.240935 53.0454 0.120676C52.794 0.000416946 52.5097 -0.0323893 52.2375 0.0274688C40.8312 2.47247 36.4625 10.0637 34.7887 15.4675C34.1462 11.3487 31.5387 2.51622 20.9137 0.0324688C20.6329 -0.0332816 20.3379 0.000124594 20.0789 0.127023C19.8199 0.253921 19.6127 0.466502 19.4925 0.728719C18.5135 3.30488 17.9237 6.01251 17.7425 8.76247C17.6637 8.76247 17.5862 8.74997 17.5075 8.74997C14.7607 8.74902 12.0664 9.50229 9.71845 10.9276C7.37046 12.353 5.45893 14.3957 4.19231 16.833C2.9257 19.2703 2.35263 22.0086 2.53562 24.7492C2.7186 27.4899 3.65061 30.1277 5.22999 32.375L7.27249 30.935C6.14312 29.3277 5.40843 27.4769 5.12801 25.5327C4.8476 23.5885 5.02934 21.6055 5.65851 19.7446C6.28769 17.8838 7.34657 16.1974 8.74929 14.8222C10.152 13.447 11.8591 12.4218 13.7321 11.8297C15.6051 11.2376 17.5913 11.0952 19.5296 11.4142C21.4678 11.7331 23.3037 12.5044 24.8882 13.6654C26.4727 14.8265 27.7613 16.3446 28.6494 18.0967C29.5376 19.8488 30.0003 21.7856 30 23.75C30 23.9237 29.9837 24.0925 29.9762 24.2637C28.3595 26.7062 27.4983 29.5709 27.5 32.5C27.5 32.9787 27.5275 33.45 27.5712 33.9162C25.0248 31.6123 21.7641 30.2533 18.3351 30.067C14.9062 29.8807 11.5174 30.8783 8.73635 32.8928C5.9553 34.9072 3.95094 37.8162 3.05903 41.1323C2.16711 44.4485 2.44181 47.9704 3.83711 51.1081C5.23241 54.2459 7.66356 56.8088 10.7233 58.3677C13.7831 59.9266 17.2856 60.3868 20.6442 59.671C24.0027 58.9553 27.0134 57.1072 29.1717 54.4363C31.3301 51.7654 32.5051 48.434 32.5 45C32.5 44.5212 32.4725 44.05 32.4287 43.5837C34.5746 45.5434 37.2444 46.8363 40.1124 47.3048C42.9805 47.7733 45.9228 47.3971 48.5807 46.222C51.2387 45.047 53.4972 43.1239 55.081 40.6874C56.6647 38.2508 57.5052 35.406 57.5 32.5C57.4995 31.5855 57.4158 30.673 57.25 29.7737ZM53.75 16.25C53.7455 17.9512 53.1201 19.5923 51.9912 20.865C49.6185 18.9273 46.7065 17.7676 43.6512 17.5437C46.1332 12.771 48.9656 8.18889 52.125 3.83497C53.2769 7.87033 53.8245 12.0541 53.75 16.25ZM49.2987 3.46497C46.1253 7.95873 43.2924 12.6836 40.8237 17.6C39.3349 17.7663 37.8797 18.1565 36.5075 18.7575C37.0437 15.2848 38.5186 12.0248 40.773 9.32953C43.0274 6.63429 45.9755 4.60639 49.2987 3.46497ZM20.2125 9.00872C20.3934 6.88677 20.7939 4.7893 21.4075 2.74997C32.325 5.98122 32.5 17.125 32.5 17.6137C32.517 18.6461 32.4104 19.6767 32.1825 20.6837C31.5677 17.7711 30.1019 15.1065 27.9709 13.028C25.8398 10.9495 23.1396 9.55061 20.2125 9.00872ZM17.5 57.5C15.0277 57.5 12.611 56.7669 10.5554 55.3933C8.49975 54.0198 6.89759 52.0676 5.9515 49.7835C5.0054 47.4994 4.75786 44.9861 5.24018 42.5613C5.72249 40.1366 6.913 37.9093 8.66116 36.1611C10.4093 34.413 12.6366 33.2225 15.0614 32.7402C17.4861 32.2578 19.9995 32.5054 22.2835 33.4515C24.5676 34.3976 26.5198 35.9997 27.8934 38.0553C29.2669 40.111 30 42.5277 30 45C29.9964 48.3141 28.6782 51.4914 26.3348 53.8348C23.9914 56.1782 20.8141 57.4963 17.5 57.5Z" fill="#001A1F"/>
<path d="M10 40C7.89625 40 6.25 42.1962 6.25 45C6.25 47.8038 7.89625 50 10 50C12.1037 50 13.75 47.8038 13.75 45C13.75 42.1962 12.1037 40 10 40ZM10 47.5C9.49 47.5 8.75 46.5262 8.75 45C8.75 43.4738 9.49 42.5 10 42.5C10.51 42.5 11.25 43.4738 11.25 45C11.25 46.5262 10.51 47.5 10 47.5Z" fill="#001A1F"/>
<path d="M22.5 17.5C22.5 15.3963 20.3038 13.75 17.5 13.75C14.6962 13.75 12.5 15.3963 12.5 17.5C12.5 19.6037 14.6962 21.25 17.5 21.25C20.3038 21.25 22.5 19.6037 22.5 17.5ZM15 17.5C15 16.99 15.9738 16.25 17.5 16.25C19.0262 16.25 20 16.99 20 17.5C20 18.01 19.0262 18.75 17.5 18.75C15.9738 18.75 15 18.01 15 17.5Z" fill="#001A1F"/>
<path d="M37.5 26.25C37.5 28.3537 39.6962 30 42.5 30C45.3038 30 47.5 28.3537 47.5 26.25C47.5 24.1463 45.3038 22.5 42.5 22.5C39.6962 22.5 37.5 24.1463 37.5 26.25ZM45 26.25C45 26.76 44.0262 27.5 42.5 27.5C40.9738 27.5 40 26.76 40 26.25C40 25.74 40.9738 25 42.5 25C44.0262 25 45 25.74 45 26.25Z" fill="#001A1F"/>
</g>
<defs>
<clipPath id="clip0_7_1426">
<rect width="60" height="60" fill="white"/>
</clipPath>
</defs>
</svg>
