<svg width="60" height="60" viewBox="0 0 60 60" fill="none" xmlns="http://www.w3.org/2000/svg">
<mask id="mask0_7_1255" style="mask-type:luminance" maskUnits="userSpaceOnUse" x="0" y="0" width="60" height="60">
<path d="M0 3.8147e-06H60V60H0V3.8147e-06Z" fill="white"/>
</mask>
<g mask="url(#mask0_7_1255)">
<path fill-rule="evenodd" clip-rule="evenodd" d="M27.2062 57.1979C27.5412 55.5472 29.2392 50.7676 37.6604 50.9681C37.6604 50.9681 38.6827 41.7845 44.104 39.4328C43.8523 38.7236 43.7147 37.96 43.7147 37.1643C43.7147 33.671 46.3561 30.7948 49.7505 30.4239C49.9952 30.3972 50.2438 30.3834 50.4955 30.3834C51.7775 30.3834 52.9762 30.7391 53.9987 31.3573C55.9632 32.5449 57.2764 34.7011 57.2764 37.1643C57.2764 40.8349 54.3596 43.8239 50.7175 43.9411C49.5158 53.3514 41.845 61.9075 27.1259 57.7488C27.1259 57.7488 27.1366 57.5409 27.2062 57.1979Z" fill="#73CA5B"/>
<path fill-rule="evenodd" clip-rule="evenodd" d="M18.4292 43.2744C25.4988 48.6751 27.1259 57.7489 27.1259 57.7489C14.4866 57.7489 4.24048 47.1233 4.24048 34.016C4.24048 30.7985 4.85923 27.7312 5.97778 24.9332C5.94532 25.1754 4.47392 36.5466 14.654 41.0391C16.0585 41.6588 17.3118 42.4208 18.4292 43.2744Z" fill="#A6F074"/>
<path fill-rule="evenodd" clip-rule="evenodd" d="M16.107 32.8052C20.4661 35.227 18.4291 43.2743 18.4291 43.2743C17.3117 42.4207 16.0584 41.6587 14.654 41.0391C4.4738 36.5466 5.94521 25.1753 5.97767 24.9332L5.97661 24.9325C0.0139976 20.9249 3.38349 15.8771 7.07314 16.1332L7.07302 16.1343C8.18536 16.2114 9.32677 16.7698 10.2503 17.9848L10.251 17.9855L10.2517 17.9862C12.2804 19.9905 12.2323 23.3605 12.2323 23.3605C16.2891 26.0152 16.107 32.8052 16.107 32.8052Z" fill="#73CA5B"/>
<path fill-rule="evenodd" clip-rule="evenodd" d="M49.7467 30.398C48.1559 19.6125 39.5642 11.2168 28.9323 10.3559C28.9323 10.3559 31.5166 5.87113 38.2183 7.63445L38.2194 7.63328C39.6711 8.01554 41.3162 8.69102 43.1699 9.76879C43.1699 9.76879 48.7399 7.34711 50.9194 13.2803C58.061 13.9013 58.9696 21.5767 54.5521 25.9943C54.5521 25.9943 55.8671 28.0019 53.9987 31.3573C52.9763 30.739 51.7775 30.3834 50.4956 30.3834C50.2437 30.3834 49.9952 30.3975 49.7506 30.4244C49.7492 30.4155 49.748 30.4067 49.7467 30.398Z" fill="#A6F074"/>
<path fill-rule="evenodd" clip-rule="evenodd" d="M49.7467 30.398C49.748 30.4067 49.7492 30.4155 49.7505 30.4239C46.356 30.7948 43.7146 33.6711 43.7146 37.1642C43.7146 37.9599 43.8522 38.7235 44.104 39.4328C38.6826 41.7844 37.6603 50.9681 37.6603 50.9681C29.2391 50.7676 27.5412 55.5472 27.2062 57.1979C27.1367 57.5409 27.1259 57.7489 27.1259 57.7489C27.1259 57.7489 25.4987 48.6751 18.4292 43.2744C18.4292 43.2744 20.4662 35.2271 16.107 32.8053C16.107 32.8053 16.2891 26.0152 12.2323 23.3606C12.2323 23.3606 12.2803 19.9906 10.2518 17.9862C14.4353 13.2521 20.4457 10.283 27.1259 10.283C27.7339 10.283 28.3361 10.3086 28.9321 10.3573C39.5638 11.2184 48.1559 19.6127 49.7467 30.398Z" fill="#DCFFB6"/>
<path fill-rule="evenodd" clip-rule="evenodd" d="M38.2193 7.63328C38.2193 7.63328 36.6312 1.17156 29.1239 1.17156C21.6167 1.17156 20.648 6.49937 20.648 6.49937C20.648 6.49937 8.25519 5.18277 7.07324 16.1332L7.07312 16.1343C8.18546 16.2114 9.32675 16.7698 10.2504 17.9848L10.2518 17.9862C14.4353 13.2521 20.4457 10.2829 27.1259 10.2829C27.7339 10.2829 28.3361 10.3086 28.9321 10.3573L28.9322 10.3558C28.9322 10.3558 31.5166 5.87113 38.2183 7.63445L38.2193 7.63328Z" fill="#73CA5B"/>
<path d="M28.9322 10.3559C28.9322 10.3559 32.7564 3.71454 43.1699 9.76879C43.1699 9.76879 48.7399 7.34711 50.9194 13.2803C58.061 13.9013 58.9696 21.5767 54.5521 25.9943C54.5521 25.9943 55.8671 28.0019 53.9987 31.3573L53.9985 31.3574C52.9762 30.7393 51.7775 30.3834 50.4956 30.3834C50.2437 30.3834 49.9952 30.3975 49.7506 30.4244C48.1699 19.6263 39.5725 11.2191 28.9321 10.3574L28.9322 10.3559Z" stroke="black" stroke-width="2.46094" stroke-miterlimit="2.613" stroke-linecap="round" stroke-linejoin="round"/>
<path d="M9.09931 48.6386C13.2883 54.1846 19.8058 57.7488 27.1259 57.7488C27.1259 57.7488 27.4892 50.726 37.6605 50.9681C37.6605 50.9681 38.6826 41.7844 44.104 39.4327C43.8523 38.7235 43.7147 37.9599 43.7147 37.1642C43.7147 33.6711 46.3563 30.7953 49.7507 30.4243C48.0817 19.0245 38.524 10.1355 26.835 10.2849M7.1997 45.6967C7.20942 45.7144 7.21915 45.7321 7.22876 45.7498M5.97778 24.9332C4.85923 27.7312 4.24048 30.7985 4.24048 34.016C4.24048 36.5201 4.61466 38.9339 5.30782 41.1999M18.7395 11.9273C15.4769 13.2607 12.5806 15.3496 10.2511 17.9855M21.9045 10.9035C21.8992 10.9048 21.894 10.9062 21.8887 10.9074" stroke="black" stroke-width="2.46094" stroke-miterlimit="2.613" stroke-linecap="round" stroke-linejoin="round"/>
<path d="M34.6939 20.3033C34.6939 20.3033 21.1713 27.7371 27.2061 57.1979" stroke="black" stroke-width="2.46094" stroke-miterlimit="2.613" stroke-linecap="round" stroke-linejoin="round"/>
<path d="M27.1258 57.7488C27.1258 57.7488 24.9437 45.5799 14.6539 41.039C4.47385 36.5465 5.94526 25.1752 5.97772 24.9332" stroke="black" stroke-width="2.46094" stroke-miterlimit="2.613" stroke-linecap="round" stroke-linejoin="round"/>
<path d="M50.4955 30.3833C46.7505 30.3833 43.7147 33.4192 43.7147 37.1642C43.7147 37.9599 43.8523 38.7235 44.104 39.4328C38.6825 41.7844 37.6604 50.968 37.6604 50.968C27.4891 50.7259 27.1259 57.7488 27.1259 57.7488C41.845 61.9075 49.5158 53.3513 50.7175 43.941C54.3596 43.8238 57.2763 40.8349 57.2763 37.1642C57.2763 33.4192 54.2405 30.3833 50.4955 30.3833Z" stroke="black" stroke-width="2.46094" stroke-miterlimit="2.613" stroke-linecap="round" stroke-linejoin="round"/>
<path d="M16.107 32.8052C20.4662 35.227 18.4291 43.2743 18.4291 43.2743C17.3239 42.43 16.0855 41.6753 14.6996 41.0593L14.654 41.0391C4.47384 36.5466 5.94525 25.1753 5.97771 24.9332C5.97771 24.9332 5.97747 24.9329 5.97665 24.9325C-1.7835 19.7168 6.26306 12.7392 10.2504 17.9848C12.2805 19.9891 12.2324 23.3605 12.2324 23.3605C16.2892 26.0152 16.107 32.8052 16.107 32.8052Z" stroke="black" stroke-width="2.46094" stroke-miterlimit="2.613" stroke-linecap="round" stroke-linejoin="round"/>
<path d="M38.2183 7.63445L38.2193 7.63328C38.2193 7.63328 36.6312 1.17168 29.1239 1.17168C21.6167 1.17168 20.6479 6.49937 20.6479 6.49937C20.6479 6.49937 8.25507 5.18277 7.07324 16.1332L7.07312 16.1343C8.18546 16.2114 9.32675 16.7698 10.2504 17.9848L10.2518 17.9862" stroke="black" stroke-width="2.46094" stroke-miterlimit="2.613" stroke-linecap="round" stroke-linejoin="round"/>
<path d="M28.6992 27.6772C31.1209 25.2858 37.165 24.0837 40.9185 27.1411" stroke="black" stroke-width="2.46094" stroke-miterlimit="2.613" stroke-linecap="round" stroke-linejoin="round"/>
<path d="M26.6175 33.8267C26.6175 33.8267 23.7299 24.2794 19.0076 23.1292" stroke="black" stroke-width="2.46094" stroke-miterlimit="2.613" stroke-linecap="round" stroke-linejoin="round"/>
<path d="M31.913 38.6728C29.4553 38.6688 26.3761 39.6186 25.6581 42.6382M34.9484 39.4313C34.9346 39.4181 34.9203 39.4052 34.9052 39.3924" stroke="black" stroke-width="2.46094" stroke-miterlimit="2.613" stroke-linecap="round" stroke-linejoin="round"/>
<path d="M20.6479 6.4995L21.8788 7.47766" stroke="black" stroke-width="2.46094" stroke-miterlimit="2.613" stroke-linecap="round" stroke-linejoin="round"/>
<path d="M37.6604 50.9681C39.453 50.9506 40.7992 51.3234 41.6543 52.1261" stroke="black" stroke-width="2.46094" stroke-miterlimit="2.613" stroke-linecap="round" stroke-linejoin="round"/>
<path d="M12.2324 23.3606C12.2324 23.3606 11.3981 26.1765 11.7497 29.6042" stroke="black" stroke-width="2.46094" stroke-miterlimit="2.613" stroke-linecap="round" stroke-linejoin="round"/>
<path d="M50.9194 13.2802C50.9194 13.2802 48.5614 13.2454 47.1927 14.5481" stroke="black" stroke-width="2.46094" stroke-miterlimit="2.613" stroke-linecap="round" stroke-linejoin="round"/>
<path d="M50.7174 43.941C50.7174 43.941 50.9303 40.3358 51.4577 39.369" stroke="black" stroke-width="2.46094" stroke-miterlimit="2.613" stroke-linecap="round" stroke-linejoin="round"/>
</g>
</svg>
