<svg width="60" height="60" viewBox="0 0 60 60" fill="none" xmlns="http://www.w3.org/2000/svg">
<g clip-path="url(#clip0_7_1249)">
<path d="M58.0987 15.0072C57.0911 13.4351 55.4195 12.7052 53.7957 12.8164C55.9422 11.0315 56.0546 7.82822 54.1202 5.89381C52.1851 3.95869 48.982 4.07272 47.1976 6.2183C47.3089 4.59455 46.5791 2.92276 45.0068 1.91529C41.9852 -0.0243931 37.9228 2.14088 37.8382 5.78483C37.7812 8.21694 36.836 11.6853 35.7177 16.0932V16.0944C37.402 17.0089 38.97 18.3471 40.3183 19.6957C41.6746 21.0519 43.005 22.6122 43.9208 24.2963C48.883 23.0373 51.9291 22.2297 54.2292 22.1758C57.8625 22.0913 60.0432 18.0362 58.0987 15.0072Z" fill="#85E374"/>
<path d="M39.3307 37.0883C25.6601 46.3786 5.06451 61.782 1.64826 58.3658C-1.76799 54.9496 13.6354 34.3552 22.9269 20.6834C28.0638 13.1248 33.743 13.1204 40.3184 19.6957C46.8567 26.2341 46.9314 31.9228 39.3307 37.0883Z" fill="#FEA832"/>
<path d="M34.3646 27.3072C34.8215 26.8491 34.8215 26.1075 34.3646 25.6494C33.9065 25.1925 33.1649 25.1925 32.7068 25.6494C32.2499 26.1075 32.2499 26.8491 32.7068 27.3072C33.1649 27.7641 33.9066 27.7641 34.3646 27.3072Z" fill="black"/>
<path d="M19.4533 42.2186C19.9102 41.7605 19.9102 41.0189 19.4533 40.5608C18.9952 40.1039 18.2537 40.1039 17.7956 40.5608C17.3387 41.0189 17.3387 41.7605 17.7956 42.2186C18.2537 42.6755 18.9952 42.6755 19.4533 42.2186Z" fill="black"/>
<path d="M39.9893 38.0572C44.7793 34.8018 47.7526 30.506 45.587 25.0874C48.6164 24.3285 52.0131 23.3995 54.2564 23.347C58.8036 23.2415 61.5247 18.1756 59.0851 14.375C58.329 13.1951 57.2419 12.354 55.9929 11.9353C57.1455 9.75001 56.8277 6.9443 54.9487 5.06532C53.0925 3.2093 50.2902 2.86161 48.0796 4.0227C47.6611 2.7729 46.8198 1.68575 45.6398 0.929537C41.8461 -1.50597 36.7729 1.20317 36.667 5.75754C36.6133 8.04809 35.6533 11.5268 34.9264 14.428C29.5072 12.2618 25.2117 15.2371 21.958 20.0249C16.6249 27.8718 9.10404 38.2452 4.45732 46.1432C0.124552 53.5079 -0.963417 57.4109 0.819708 59.1942C4.99346 63.368 22.0602 50.2418 39.9893 38.0572ZM57.1128 15.6401C58.5532 17.8841 56.9438 20.9409 54.2015 21.0048C51.5566 21.0668 47.9821 22.0717 44.4887 22.9468C43.9952 22.1557 43.4027 21.3575 42.7003 20.5383C54.5978 13.7827 53.7671 14.2897 54.2021 13.9794C55.381 14.0046 56.4518 14.6087 57.1128 15.6401ZM53.2918 6.72223C54.9503 8.38067 54.5468 11.181 52.4761 12.3018C52.4694 12.3054 52.463 12.3091 52.4563 12.3128L41.474 18.5399L47.7013 7.55766C47.7049 7.5511 47.7085 7.54465 47.7122 7.53809C48.8403 5.4559 51.6425 5.07282 53.2918 6.72223ZM39.0094 5.81215C39.0733 3.06317 42.1393 1.46661 44.3748 2.90169C45.4055 3.56215 46.009 4.63337 46.0347 5.81204C45.721 6.25196 46.2087 5.45684 39.4758 17.314C38.6551 16.6106 37.8569 16.0181 37.0672 15.5258C38.0359 11.6582 38.9497 8.36251 39.0094 5.81215ZM2.86147 54.5489C3.49662 52.7575 4.71315 50.3291 6.47693 47.3312C7.22846 46.0538 8.06061 44.7047 8.94771 43.3103L11.1692 45.5317C11.6269 45.9892 12.3684 45.9892 12.8262 45.5317C13.2837 45.0742 13.2837 44.3324 12.8262 43.8749L10.2466 41.2955C12.3476 38.0749 14.6694 34.6848 16.9336 31.4142L21.1096 35.5911C21.5669 36.0485 22.3087 36.049 22.7665 35.5913C23.224 35.1338 23.2241 34.3921 22.7667 33.9345L18.2907 29.4574C20.1853 26.7293 22.1716 23.879 23.8959 21.3418C24.3065 20.7375 24.7125 20.1977 25.1135 19.7138L29.3938 23.9931C29.8514 24.4505 30.593 24.4506 31.0507 23.993C31.5081 23.5354 31.5079 22.7937 31.0504 22.3362L26.7398 18.0266C31.1126 14.219 35.3743 16.4085 39.4901 20.5242C45.6428 26.6748 45.5089 31.4732 38.6724 36.1195C37.941 36.6166 37.1918 37.1299 36.4283 37.6556L32.7074 33.9347C32.2497 33.4772 31.5082 33.4772 31.0504 33.9347C30.5929 34.3922 30.5929 35.134 31.0504 35.5916L34.4683 39.0095C31.2796 41.2185 28.0126 43.5041 24.6743 45.7827L22.7669 43.8754C22.3094 43.4179 21.5679 43.4179 21.11 43.8754C20.6525 44.3329 20.6525 45.0747 21.11 45.5322L22.7006 47.1227C18.451 49.9908 10.275 55.4476 5.46572 57.1529C3.00397 58.0259 2.49736 57.5581 2.47697 57.5379C2.45623 57.517 1.98842 57.0109 2.86147 54.5489Z" fill="black"/>
</g>
<defs>
<clipPath id="clip0_7_1249">
<rect width="60" height="60" fill="white"/>
</clipPath>
</defs>
</svg>
