<svg width="60" height="60" viewBox="0 0 60 60" fill="none" xmlns="http://www.w3.org/2000/svg">
<path d="M53.7 27.9201L53.69 27.9501C51.16 43.6601 33.53 59.0001 22.63 59.0001C11.84 59.0001 4 52.4201 4 42.0801C4 31.7401 11.9 26.4001 17.73 25.1601C26.55 23.2801 29.93 21.7101 33.41 16.7001C33.9505 15.9323 34.6047 15.2511 35.35 14.6801C35.88 16.5401 43.49 14.3601 46.05 15.0001C53.71 16.9001 51.35 26.9501 53.7 27.9201Z" fill="#9D27B0"/>
<path d="M36.359 15.3511C35.819 15.2441 35.452 15.0381 35.35 14.6801C35.05 14.9188 34.7641 15.1749 34.494 15.4471C35.053 15.4511 35.689 15.4111 36.359 15.3511Z" fill="#6A1B9A"/>
<path d="M46.05 15C45.0181 14.8416 43.9687 14.8352 42.935 14.981C42.971 14.989 43.016 14.991 43.05 15C50.71 16.9 48.35 26.95 50.7 27.92L50.69 27.95C48.253 43.082 31.81 57.864 20.863 58.932C21.443 58.972 22.03 59 22.63 59C33.53 59 51.16 43.66 53.69 27.95L53.7 27.92C51.35 26.95 53.71 16.9 46.05 15Z" fill="#6A1B9A"/>
<path d="M54.1 28C53.9626 28.0006 53.8266 27.9734 53.7 27.92C51.35 26.95 53.71 16.9 46.05 15C43.49 14.36 35.88 16.54 35.35 14.68C35.25 14.31 35.43 13.76 36 13C38.99 9 45.05 10 48.06 10C51.07 10 48.06 3 48.06 3C49.07 1 52.09 1 52.09 1C56.11 7 52.09 10 54.1 13C56.11 16 57.11 28 54.1 28Z" fill="#60A917"/>
<path d="M54.1 13C52.09 10 56.11 7 52.09 1C51.1832 1.02364 50.2919 1.23975 49.475 1.634C52.8 7.21 49.163 10.109 51.1 13C52.6 15.246 53.543 22.535 52.657 26.058C52.877 27.011 53.167 27.7 53.7 27.92C53.8266 27.9734 53.9626 28.0006 54.1 28C57.11 28 56.11 16 54.1 13Z" fill="#549414"/>
<path d="M8 41C7.44772 41 7 40.5523 7 40C7 37.437 9.449 31.118 16.725 29.039C17.0721 28.9286 17.4518 29.0157 17.7161 29.2663C17.9804 29.5169 18.0876 29.8914 17.9959 30.2439C17.9041 30.5963 17.628 30.8711 17.275 30.961C10.473 32.905 9 38.676 9 40C9 40.5523 8.55228 41 8 41Z" fill="#F5F5F5"/>
<path d="M8 45C8.55228 45 9 44.5523 9 44C9 43.4477 8.55228 43 8 43C7.44772 43 7 43.4477 7 44C7 44.5523 7.44772 45 8 45Z" fill="#F5F5F5"/>
<path d="M22.6301 60C33.9301 60 51.4441 44.78 54.5171 28.955C55.2383 28.7808 55.839 28.2838 56.1451 27.608C57.8171 24.473 56.8041 15.243 54.9281 12.443C54.3431 11.571 54.4501 10.694 54.6891 9.219C55.4009 6.17514 54.7542 2.9722 52.9171 0.443C52.7313 0.165986 52.4197 -0.000162461 52.0861 1.19206e-07C51.9381 1.19206e-07 48.4381 0.029 47.1711 2.551C47.0383 2.81512 47.0291 3.12449 47.1461 3.396C48.0381 5.471 48.7201 8.259 48.2711 8.94C48.2551 8.964 48.2311 9 48.0641 9C47.6211 9 47.1091 8.978 46.5511 8.953C43.1681 8.8 38.0581 8.583 35.2001 12.4C34.7715 12.9245 34.4794 13.5471 34.3501 14.212C33.6824 14.7718 33.0904 15.4162 32.5891 16.129C29.4171 20.695 26.4591 22.275 17.5221 24.181C9.04101 25.9349 2.96857 33.4195 3.00012 42.08C3.00012 52.631 11.0721 60 22.6301 60ZM36.8001 13.6C39.0261 10.627 43.3251 10.815 46.4641 10.951C47.0551 10.977 47.5951 11 48.0641 11C48.814 11.0274 49.5245 10.664 49.9411 10.04C51.0661 8.33 49.8481 4.74 49.1881 3.1C49.836 2.48425 50.6768 2.11151 51.5681 2.045C52.8824 4.07287 53.298 6.55457 52.7161 8.9C52.4691 10.419 52.2161 11.988 53.2661 13.559C54.7421 15.759 55.6811 24.232 54.3801 26.669C54.2641 26.887 54.1491 27.002 54.0801 27.004C53.7461 26.796 53.4801 25.17 53.3031 24.094C52.7351 20.64 51.8771 15.421 46.2891 14.032C45.784 13.9207 45.2673 13.87 44.7501 13.881C43.5229 13.9144 42.2983 14.0112 41.0811 14.171C39.5651 14.341 37.0951 14.617 36.3541 14.338C36.4684 14.0728 36.6184 13.8245 36.8001 13.6ZM17.9381 26.138C26.7171 24.267 30.4981 22.646 34.2321 17.27C34.5549 16.8219 34.9236 16.4086 35.3321 16.037C36.5511 16.675 38.7061 16.447 41.3101 16.157C42.7963 15.906 44.3082 15.8431 45.8101 15.97C50.1201 17.042 50.7921 21.131 51.3321 24.417C51.5911 25.998 51.8541 27.503 52.5971 28.334C49.8661 43.143 33.0441 58 22.6301 58C12.0851 58 5.00012 51.6 5.00012 42.08C5.00012 31.646 13.4631 27.09 17.9381 26.138Z" fill="black"/>
</svg>
