<svg width="49" height="49" viewBox="0 0 49 49" fill="none" xmlns="http://www.w3.org/2000/svg">
<path d="M29.6052 28.404L31.376 27.2894C31.4341 27.2532 31.4846 27.2058 31.5244 27.1501C31.5642 27.0944 31.5927 27.0313 31.6082 26.9646C31.6237 26.8978 31.6258 26.8287 31.6146 26.7611C31.6034 26.6935 31.5789 26.6288 31.5427 26.5707C31.5064 26.5125 31.4591 26.4621 31.4033 26.4223C31.3476 26.3824 31.2846 26.354 31.2178 26.3385C31.1511 26.323 31.0819 26.3208 31.0143 26.3321C30.9468 26.3433 30.8821 26.3678 30.8239 26.404L29.4229 27.3259L29.7198 26.4144C29.7619 26.2825 29.7499 26.1393 29.6864 26.0162C29.655 25.9553 29.6118 25.9011 29.5595 25.8568C29.5071 25.8126 29.4465 25.779 29.3812 25.7582C29.2493 25.7161 29.106 25.728 28.983 25.7915C28.8599 25.855 28.7671 25.9648 28.725 26.0967L28.4333 27.003L27.8083 25.4405C27.7572 25.312 27.6571 25.2091 27.5302 25.1544C27.4032 25.0997 27.2597 25.0977 27.1312 25.1488C27.0027 25.1999 26.8998 25.3 26.8451 25.4269C26.7905 25.5539 26.7884 25.6974 26.8395 25.8259L27.6156 27.7686C25.4139 27.3359 23.1301 27.7238 21.1947 28.8592C19.2594 29.9946 17.8065 31.7989 17.1101 33.9319C16.4136 36.0648 16.5218 38.3789 17.4141 40.4376C18.3065 42.4962 19.9214 44.1572 21.9541 45.1071L20.1833 46.2269C20.0652 46.3008 19.9813 46.4186 19.95 46.5544C19.9188 46.6902 19.9427 46.8328 20.0166 46.9509C20.0905 47.069 20.2083 47.1529 20.3441 47.1842C20.4799 47.2154 20.6225 47.1915 20.7406 47.1176L22.1625 46.2217L21.8656 47.1176C21.8229 47.2488 21.834 47.3916 21.8965 47.5147C21.959 47.6377 22.0678 47.7309 22.1989 47.7738C22.2525 47.7809 22.3068 47.7809 22.3604 47.7738C22.4753 47.7791 22.5887 47.7462 22.6829 47.6802C22.7771 47.6143 22.8468 47.519 22.8812 47.4092L23.1729 46.5342L23.7979 48.0967C23.8365 48.1936 23.9033 48.2767 23.9896 48.3352C24.076 48.3937 24.1779 48.425 24.2823 48.4249C24.3482 48.425 24.4136 48.4126 24.475 48.3884C24.5386 48.3631 24.5967 48.3256 24.6458 48.2779C24.6949 48.2302 24.7341 48.1732 24.7612 48.1103C24.7883 48.0474 24.8027 47.9798 24.8036 47.9114C24.8046 47.8429 24.792 47.7749 24.7666 47.7113L23.9854 45.7634C24.5814 45.889 25.1887 45.9535 25.7979 45.9561C27.8942 45.9543 29.927 45.2361 31.5592 43.9205C33.1913 42.6049 34.3248 40.771 34.7716 38.7228C35.2184 36.6747 34.9518 34.5353 34.0159 32.6594C33.08 30.7836 31.5311 29.284 29.626 28.4092L29.6052 28.404ZM23.277 44.5134C22.8291 44.2009 22.8187 41.1176 24.3812 36.3051C25.9437 31.4926 27.7614 29.0134 28.2927 29.0134C28.7354 29.3259 28.7458 32.4092 27.1833 37.2217C25.6208 42.0342 23.8031 44.5134 23.277 44.5134ZM26.8187 28.8884C26.4668 29.305 26.1514 29.7511 25.876 30.2217C24.8398 32.0364 24.0017 33.9571 23.376 35.9509C22.6416 38.2113 21.8135 41.628 21.9906 43.7113C21.3248 43.0169 20.8604 42.1545 20.6468 41.2165C20.1893 39.2109 20.3066 37.1168 20.9854 35.1749C21.5771 33.2043 22.7125 31.4406 24.2614 30.0863C24.9893 29.4623 25.8733 29.0482 26.8187 28.8884ZM24.7354 44.6228C25.0849 44.2056 25.3985 43.7595 25.6729 43.2894C26.7085 41.4654 27.5466 39.5361 28.1729 37.5342C28.902 35.279 29.7354 31.8571 29.5531 29.7738C30.2222 30.4665 30.6888 31.3294 30.902 32.2686C31.3596 34.2743 31.2423 36.3683 30.5635 38.3103C29.4229 41.8155 27.027 44.3103 24.7354 44.6228ZM18.0323 34.2373C18.4932 32.8199 19.3343 31.556 20.4639 30.5835C21.5935 29.6109 22.9682 28.967 24.4385 28.7217C24.1488 28.8979 23.872 29.0946 23.6104 29.3103C21.9092 30.7912 20.6585 32.7204 20.001 34.878C19.2644 37.0095 19.1416 39.3051 19.6468 41.503C19.7325 41.8294 19.8403 42.1496 19.9698 42.4613C18.9262 41.3984 18.1938 40.0698 17.8523 38.62C17.5107 37.1701 17.5729 35.6543 18.0323 34.2373ZM33.5323 39.2738C33.0703 40.6954 32.2256 41.9622 31.0909 42.9351C29.9562 43.9081 28.5753 44.5497 27.1 44.7894C28.975 43.628 30.652 41.4249 31.5583 38.6332C32.2984 36.5043 32.423 34.2099 31.9177 32.0134C31.8297 31.6894 31.7219 31.371 31.5948 31.0603C32.6364 32.1222 33.3677 33.449 33.7092 34.8968C34.0507 36.3446 33.9895 37.8583 33.5323 39.2738ZM46.5218 20.5915C46.5017 20.5558 46.4752 20.524 46.4437 20.4978C46.3604 20.3988 46.2823 20.2894 46.1937 20.1957L45.4541 19.3936C45.2176 19.1361 44.9325 18.9281 44.6151 18.7815C44.2978 18.6349 43.9545 18.5526 43.6052 18.5394L43.9593 17.8363C44.127 17.4989 44.187 17.1181 44.1311 16.7454C44.0752 16.3728 43.9061 16.0264 43.6468 15.753C43.5521 15.6591 43.4864 15.5399 43.4578 15.4096C43.4292 15.2793 43.4387 15.1436 43.4854 15.0186L44.0791 13.5342C44.2011 13.2315 44.2394 12.9016 44.1899 12.579C44.1404 12.2564 44.005 11.9531 43.7979 11.7009L43.277 11.0863C43.1408 10.9211 43.0457 10.7258 42.9995 10.5167C42.9533 10.3076 42.9574 10.0904 43.0114 9.88318L43.2198 9.09672C43.3478 8.62889 43.2991 8.1303 43.0829 7.69608C42.8668 7.26187 42.4983 6.92244 42.0479 6.74255C41.7952 6.64153 41.5707 6.48071 41.3938 6.27388C41.2169 6.06704 41.0929 5.82038 41.0323 5.55505L40.8395 4.68526C40.7868 4.45392 40.6793 4.2386 40.5261 4.05736C40.373 3.87612 40.1786 3.73423 39.9593 3.6436C39.6793 3.52641 39.3694 3.50089 39.0739 3.57068L39.2093 3.00297C39.2997 2.59269 39.2582 2.16435 39.0908 1.77903C38.9234 1.3937 38.6386 1.07107 38.277 0.857137L37.9645 0.680054C37.748 0.556061 37.5075 0.479674 37.259 0.455988C37.0106 0.432303 36.76 0.461863 36.5239 0.542698C36.2878 0.623532 36.0717 0.753783 35.8899 0.92476C35.7081 1.09574 35.5649 1.30351 35.4698 1.53422L35.152 2.19047C35.1098 2.29511 35.0381 2.38524 34.9457 2.44995C34.8532 2.51466 34.744 2.55117 34.6312 2.55505C34.4447 2.55627 34.2606 2.59644 34.0906 2.67297C33.9205 2.74951 33.7684 2.86072 33.6438 2.99949C33.5193 3.13826 33.4251 3.30152 33.3673 3.47881C33.3095 3.6561 33.2894 3.8435 33.3083 4.02901L33.4541 5.49776C33.4995 5.95161 33.3669 6.40535 33.0843 6.76339L32.6052 7.36755C32.2771 7.78611 32.104 8.30536 32.1154 8.83705C32.1268 9.36875 32.322 9.8801 32.6677 10.2842L33.1885 10.8936C33.3521 11.0762 33.4729 11.2929 33.5423 11.5281C33.6117 11.7632 33.6278 12.0108 33.5895 12.253L33.4854 12.8311C33.4197 13.2204 33.4617 13.6202 33.6067 13.9874C33.7518 14.3545 33.9943 14.6751 34.3083 14.9144L35.0479 15.4717C35.1608 15.5587 35.2491 15.6736 35.3039 15.8052C35.3587 15.9367 35.3782 16.0803 35.3604 16.2217C35.2965 16.7083 35.4005 17.2022 35.6552 17.6217C35.9099 18.0412 36.3002 18.3613 36.7614 18.529C36.9808 18.6135 37.1787 18.7456 37.3408 18.9159C37.5029 19.0861 37.6252 19.2902 37.6989 19.5134L37.85 19.9144C37.5167 20.1043 37.2287 20.3642 37.0057 20.6763C36.7827 20.9883 36.6301 21.345 36.5583 21.7217L36.2927 23.1228C36.0768 24.2663 36.099 25.442 36.358 26.5765C36.617 27.711 37.1072 28.78 37.7979 29.7165L45.7666 40.503C45.8146 40.5686 45.8773 40.6221 45.9496 40.6592C46.022 40.6963 46.102 40.7159 46.1833 40.7165C46.2266 40.7216 46.2702 40.7216 46.3135 40.7165C46.4148 40.69 46.5058 40.6336 46.5745 40.5546C46.6433 40.4757 46.6866 40.3778 46.6989 40.2738L48.3656 26.9821C48.5079 25.8476 48.4179 24.6959 48.1009 23.5972C47.7839 22.4986 47.2467 21.4759 46.5218 20.5915ZM37.1104 17.5811C36.8732 17.4921 36.6726 17.3264 36.5405 17.1103C36.4083 16.8941 36.3523 16.64 36.3812 16.3884C36.4238 16.065 36.3808 15.736 36.2565 15.4344C36.1322 15.1328 35.931 14.8691 35.6729 14.6696L34.9333 14.1123C34.7683 13.9858 34.6412 13.8164 34.5659 13.6226C34.4906 13.4289 34.47 13.2181 34.5062 13.0134L34.6104 12.4353C34.6798 12.0426 34.6612 11.6394 34.5558 11.2548C34.4504 10.8701 34.2609 10.5137 34.001 10.2113L33.4802 9.60193C33.2974 9.3844 33.1943 9.1111 33.1876 8.82708C33.181 8.54306 33.2713 8.26525 33.4437 8.03943L33.9229 7.43526C34.3749 6.8661 34.5861 6.1426 34.5114 5.41964L34.3656 3.95089C34.3582 3.91 34.3593 3.86803 34.3689 3.82759C34.3784 3.78716 34.3963 3.74913 34.4212 3.71589C34.4461 3.68265 34.4776 3.65491 34.5138 3.63441C34.5499 3.6139 34.5899 3.60107 34.6312 3.59672C34.9496 3.59189 35.2597 3.49419 35.5234 3.31563C35.7871 3.13706 35.9929 2.88539 36.1156 2.59151L36.3864 1.93526C36.4257 1.84086 36.4845 1.75585 36.559 1.68583C36.6336 1.6158 36.722 1.56236 36.8187 1.52901C36.9151 1.4956 37.0177 1.48342 37.1192 1.49331C37.2208 1.50319 37.3191 1.53492 37.4073 1.5863L37.7198 1.76339C37.8983 1.86414 38.0391 2.02034 38.1208 2.20831C38.2026 2.39627 38.2209 2.60577 38.1729 2.80505L37.9333 3.82068V3.86755L37.4854 7.16964C37.4661 7.30639 37.5018 7.44521 37.5849 7.55558C37.6679 7.66595 37.7913 7.73882 37.9281 7.75818H38.001C38.1282 7.75926 38.2513 7.71377 38.3473 7.6303C38.4432 7.54683 38.5053 7.43115 38.5218 7.30506L38.8656 4.77901C38.9704 4.76396 39.0712 4.72858 39.1625 4.67485C39.22 4.63108 39.2878 4.60264 39.3593 4.5922C39.4309 4.58177 39.5039 4.58967 39.5716 4.61518C39.6393 4.64069 39.6993 4.68296 39.7462 4.73803C39.7931 4.7931 39.8252 4.85918 39.8395 4.93005L40.0375 5.79985C40.1347 6.23056 40.3354 6.63112 40.6221 6.96688C40.9089 7.30265 41.2731 7.56351 41.6833 7.72693C41.8956 7.81312 42.0691 7.97411 42.1708 8.17948C42.2725 8.38485 42.2955 8.62036 42.2354 8.84151L42.0323 9.5811C41.9326 9.95134 41.9236 10.3402 42.0061 10.7146C42.0886 11.089 42.2602 11.4381 42.5062 11.7321L43.027 12.3415C43.1197 12.4507 43.1808 12.5831 43.2038 12.7244C43.2267 12.8658 43.2106 13.0107 43.1573 13.1436L42.5635 14.628C42.4417 14.9364 42.4104 15.2732 42.4731 15.5988C42.5358 15.9244 42.69 16.2254 42.9177 16.4665C43.0305 16.5832 43.1042 16.7322 43.1285 16.8928C43.1528 17.0533 43.1264 17.2175 43.0531 17.3623L42.3708 18.7321L41.5479 18.9301L42.0687 17.0446C42.106 16.9113 42.0888 16.7687 42.0209 16.6481C41.9531 16.5274 41.84 16.4387 41.7067 16.4014C41.5734 16.3641 41.4308 16.3813 41.3102 16.4492C41.1895 16.5171 41.1008 16.6301 41.0635 16.7634L40.6573 18.1957L40.626 18.1332C39.7331 16.3298 39.1905 14.3733 39.027 12.3676C39.0153 12.2294 38.9492 12.1016 38.8432 12.0122C38.7372 11.9229 38.6001 11.8793 38.4619 11.891C38.3238 11.9027 38.196 11.9689 38.1066 12.0748C38.0173 12.1808 37.9736 12.318 37.9854 12.4561C38.0323 12.9769 38.1 13.4978 38.1937 14.0186L37.3552 13.4978C37.2391 13.4225 37.0979 13.3964 36.9627 13.4252C36.8274 13.454 36.7091 13.5354 36.6338 13.6514C36.5585 13.7674 36.5324 13.9086 36.5612 14.0439C36.5901 14.1792 36.6714 14.2975 36.7875 14.3728L38.5166 15.4926C38.8062 16.5694 39.1986 17.6159 39.6885 18.6176L40.027 19.2998L38.8395 19.5811L38.6833 19.1592C38.552 18.7974 38.3431 18.4687 38.0714 18.1961C37.7997 17.9235 37.4717 17.7136 37.1104 17.5811ZM45.8291 38.8363L38.6364 29.0915C38.0307 28.2705 37.601 27.3332 37.3742 26.3384C37.1475 25.3436 37.1286 24.3127 37.3187 23.3103L37.5843 21.9092C37.6423 21.6039 37.7879 21.3221 38.0034 21.0983C38.2189 20.8745 38.495 20.7183 38.7979 20.6488L42.3708 19.8051L43.152 19.6228C43.2713 19.5935 43.3938 19.5795 43.5166 19.5811C43.739 19.5815 43.9588 19.628 44.1623 19.7177C44.3658 19.8073 44.5485 19.9382 44.6989 20.1019L45.1364 20.5811L42.1677 21.3571C42.0295 21.3744 41.9039 21.4458 41.8185 21.5557C41.733 21.6656 41.6947 21.8049 41.7119 21.9431C41.7292 22.0812 41.8006 22.2068 41.9105 22.2923C42.0204 22.3778 42.1597 22.4161 42.2979 22.3988C42.3411 22.4039 42.3848 22.4039 42.4281 22.3988L45.8968 21.4926C46.1693 21.8518 46.4082 22.2354 46.6104 22.6384L45.0479 23.0551C44.9795 23.0636 44.9134 23.0855 44.8535 23.1196C44.7936 23.1537 44.741 23.1992 44.6987 23.2536C44.6563 23.308 44.6252 23.3703 44.6069 23.4367C44.5886 23.5032 44.5836 23.5726 44.5921 23.641C44.6007 23.7094 44.6226 23.7754 44.6567 23.8354C44.6908 23.8953 44.7363 23.9479 44.7907 23.9902C44.8451 24.0325 44.9074 24.0637 44.9738 24.082C45.0403 24.1003 45.1097 24.1053 45.1781 24.0967C45.2213 24.1018 45.265 24.1018 45.3083 24.0967L47.0323 23.6436C47.1656 24.0581 47.2632 24.4833 47.3239 24.9144L45.0479 25.4509C44.9815 25.4679 44.9191 25.4978 44.8643 25.539C44.8095 25.5801 44.7633 25.6317 44.7285 25.6907C44.6936 25.7498 44.6708 25.8151 44.6612 25.883C44.6517 25.9509 44.6557 26.02 44.6729 26.0863C44.7024 26.2009 44.7701 26.302 44.8647 26.373C44.9594 26.444 45.0754 26.4807 45.1937 26.4769C45.237 26.482 45.2807 26.482 45.3239 26.4769L47.4073 25.9248C47.4107 26.2347 47.3933 26.5444 47.3552 26.8519L47.2979 27.2998L44.6937 27.9821C44.6273 27.9991 44.5649 28.0291 44.5101 28.0702C44.4553 28.1114 44.4091 28.163 44.3743 28.222C44.3395 28.281 44.3166 28.3464 44.3071 28.4142C44.2975 28.4821 44.3015 28.5512 44.3187 28.6176C44.3482 28.7321 44.4159 28.8333 44.5106 28.9043C44.6052 28.9753 44.7213 29.0119 44.8395 29.0082C44.8828 29.0133 44.9265 29.0133 44.9698 29.0082L47.1312 28.3988L45.8291 38.8363ZM37.5583 10.279C37.5583 10.176 37.5888 10.0753 37.6461 9.98965C37.7033 9.904 37.7846 9.83725 37.8798 9.79783C37.975 9.75841 38.0797 9.74809 38.1807 9.76819C38.2818 9.78828 38.3746 9.83789 38.4474 9.91073C38.5203 9.98357 38.5699 10.0764 38.59 10.1774C38.6101 10.2784 38.5997 10.3832 38.5603 10.4783C38.5209 10.5735 38.4541 10.6548 38.3685 10.7121C38.2828 10.7693 38.1821 10.7998 38.0791 10.7998C37.941 10.7998 37.8085 10.745 37.7108 10.6473C37.6132 10.5496 37.5583 10.4171 37.5583 10.279ZM20.9906 21.8936L21.0323 21.779C22.3662 17.9479 22.4953 13.8002 21.402 9.8936C21.2316 9.27102 20.889 8.70914 20.4136 8.27245C19.9382 7.83577 19.3493 7.542 18.7145 7.42485C17.9455 7.28435 17.1516 7.40537 16.4593 7.7686L15.9385 8.06026C15.8437 8.11189 15.7393 8.1437 15.6318 8.15377C15.5243 8.16384 15.4159 8.15195 15.3131 8.11883C15.2103 8.0857 15.1153 8.03204 15.0339 7.96109C14.9525 7.89014 14.8864 7.80339 14.8395 7.7061C14.5732 7.14958 14.1831 6.66142 13.6989 6.27901L13.8395 4.53422C13.8608 4.24137 13.9494 3.9574 14.0985 3.70444C14.2475 3.45147 14.453 3.23637 14.6989 3.07589L14.8812 2.9561C15.066 2.83168 15.2236 2.67105 15.3444 2.48394C15.4653 2.29683 15.5469 2.08713 15.5843 1.86755C15.6332 1.55206 15.5877 1.22916 15.4536 0.939436C15.3195 0.649709 15.1028 0.406069 14.8306 0.239121C14.5585 0.0721733 14.2431 -0.0106365 13.9241 0.00109416C13.605 0.0128248 13.2966 0.118573 13.0375 0.305054L12.8812 0.414429C12.213 0.892704 11.6616 1.51596 11.2683 2.23753C10.875 2.9591 10.6501 3.76028 10.6104 4.5811L10.5687 5.40922C9.68519 5.52467 8.86195 5.9203 8.21983 6.53805C7.57771 7.1558 7.15053 7.96312 7.001 8.84151V8.86755C6.9934 8.9183 6.97321 8.96633 6.94228 9.00727C6.91135 9.04821 6.87065 9.08075 6.82392 9.10193C6.77897 9.12565 6.72891 9.13804 6.67808 9.13804C6.62726 9.13804 6.5772 9.12565 6.53225 9.10193L5.81871 8.65922C5.34927 8.3736 4.82027 8.2001 4.27285 8.15222C3.72544 8.10435 3.17435 8.18338 2.66246 8.38318C2.38008 8.49271 2.11379 8.63988 1.87079 8.82068C1.79441 8.84858 1.72562 8.89398 1.66993 8.95324C1.61425 9.01251 1.57321 9.08398 1.55012 9.16195C1.52702 9.23993 1.5225 9.32222 1.53692 9.40225C1.55134 9.48228 1.5843 9.55783 1.63316 9.62283C1.68202 9.68784 1.74542 9.7405 1.81829 9.7766C1.89115 9.8127 1.97146 9.83123 2.05278 9.83072C2.1341 9.83021 2.21417 9.81066 2.28657 9.77364C2.35898 9.73663 2.42171 9.68317 2.46975 9.61755C2.643 9.49096 2.83212 9.38765 3.03225 9.31026C3.39205 9.16869 3.77988 9.11287 4.165 9.14723C4.55011 9.18158 4.92194 9.30516 5.251 9.50818L5.96975 9.94568C6.21096 10.0908 6.49102 10.1581 6.77183 10.1384C6.58682 11.4111 6.49803 12.696 6.50621 13.9821C6.50621 14.1203 6.56108 14.2527 6.65876 14.3504C6.75643 14.4481 6.88891 14.503 7.02704 14.503C7.16518 14.503 7.29765 14.4481 7.39533 14.3504C7.493 14.2527 7.54788 14.1203 7.54788 13.9821C7.52551 12.3255 7.67386 10.6709 7.99058 9.04464C8.09221 8.38602 8.40172 7.77713 8.87393 7.30689C9.34613 6.83664 9.9563 6.52967 10.6153 6.43078C11.2744 6.3319 11.9478 6.44628 12.5372 6.75724C13.1266 7.06819 13.6012 7.55943 13.8916 8.15922C13.9438 8.2588 14.0029 8.35453 14.0687 8.44568C14.066 8.45768 14.066 8.47013 14.0687 8.48214L14.6833 11.5551C14.7066 11.6754 14.7716 11.7837 14.8668 11.8609C14.9621 11.9381 15.0815 11.9792 15.2041 11.9769H15.3083C15.3758 11.9639 15.44 11.9375 15.4973 11.8995C15.5546 11.8615 15.6038 11.8125 15.642 11.7554C15.6803 11.6982 15.7069 11.6341 15.7202 11.5666C15.7335 11.4992 15.7334 11.4297 15.7198 11.3623L15.2823 9.18005C15.6671 9.23407 16.0591 9.16479 16.402 8.98214L16.9229 8.69047C17.4023 8.4381 17.9524 8.35374 18.4854 8.45089C18.9282 8.5313 19.3393 8.73537 19.6711 9.0395C20.0029 9.34364 20.2418 9.73544 20.3604 10.1696C21.4096 13.8686 21.3005 17.8002 20.0479 21.4353L20.0062 21.5498C19.7866 22.1777 19.3946 22.7311 18.875 23.1465C18.3555 23.5619 17.7295 23.8226 17.0687 23.8988C16.8754 23.9194 16.685 23.9613 16.501 24.0238L16.5531 23.4196C16.7227 21.4236 16.6721 19.415 16.402 17.4301C16.3932 17.3617 16.3709 17.2957 16.3365 17.2359C16.3021 17.1761 16.2563 17.1237 16.2016 17.0816C16.147 17.0395 16.0846 17.0086 16.018 16.9907C15.9514 16.9727 15.8819 16.968 15.8135 16.9769C15.7451 16.9858 15.6791 17.0081 15.6193 17.0425C15.5596 17.0769 15.5071 17.1227 15.465 17.1774C15.3801 17.2877 15.3424 17.4273 15.3604 17.5655C15.6155 19.482 15.6574 21.4209 15.4854 23.3467L15.3916 24.7217C15.2926 24.8232 15.2004 24.9311 15.1156 25.0446C14.9879 25.2312 14.8246 25.3907 14.6351 25.514C14.4456 25.6373 14.2337 25.7221 14.0114 25.7634L13.2458 25.904C12.5725 26.027 11.878 25.9529 11.2458 25.6905L10.9229 25.2217C10.1465 24.0796 9.49523 22.8573 8.98017 21.5759C8.93013 21.4477 8.83137 21.3445 8.70547 21.2888C8.57958 21.2332 8.43678 21.2297 8.30829 21.279C8.24418 21.3038 8.1856 21.341 8.13593 21.3885C8.08626 21.436 8.04648 21.4928 8.01889 21.5557C7.99129 21.6187 7.97642 21.6865 7.97514 21.7552C7.97386 21.8239 7.98619 21.8922 8.01142 21.9561C8.48789 23.1495 9.07921 24.2938 9.77704 25.3728C9.62719 25.3728 9.47753 25.3833 9.32913 25.404L8.62079 25.503C8.06584 25.582 7.49986 25.5128 6.98028 25.3025C6.46071 25.0921 6.00605 24.748 5.66246 24.3051C3.47901 21.4676 1.94949 18.1827 1.18329 14.6853C1.08448 14.2214 1.03732 13.748 1.04267 13.2738C1.04267 13.1357 0.987793 13.0032 0.890118 12.9055C0.792443 12.8078 0.659967 12.753 0.521833 12.753C0.383699 12.753 0.251223 12.8078 0.153548 12.9055C0.055873 13.0032 0.000999629 13.1357 0.000999629 13.2738C-0.00832507 13.8288 0.0476143 14.3829 0.167666 14.9248C0.971223 18.5734 2.57197 21.999 4.85517 24.9561C5.31096 25.5446 5.91434 26.002 6.60405 26.2819C7.29377 26.5618 8.04526 26.6543 8.78225 26.5498L9.49579 26.4509C9.90842 26.3899 10.3299 26.4496 10.7093 26.6228C11.5653 27.0171 12.5227 27.1354 13.4489 26.9613L14.2145 26.8207C14.9242 26.6929 15.5559 26.2929 15.975 25.7061C16.1173 25.5077 16.2998 25.3416 16.5108 25.2186C16.7217 25.0957 16.9562 25.0186 17.1989 24.9926C18.0591 24.8868 18.8717 24.5396 19.5427 23.9912C20.2137 23.4427 20.7157 22.7155 20.9906 21.8936ZM13.4802 1.24255L13.6364 1.13318C13.7585 1.04623 13.9094 1.00963 14.0578 1.03097C14.2062 1.0523 14.3406 1.12993 14.4333 1.24776C14.4823 1.31146 14.5178 1.38453 14.5375 1.46246C14.5572 1.54039 14.5607 1.62154 14.5479 1.70089C14.533 1.77883 14.5028 1.85304 14.459 1.91921C14.4151 1.98537 14.3586 2.04217 14.2927 2.0863L14.1156 2.2061C13.7381 2.45417 13.4225 2.78553 13.1932 3.1747C12.9638 3.56387 12.8268 4.00046 12.7927 4.45089L12.6885 5.68526C12.3408 5.53947 11.9744 5.44305 11.6 5.3988L11.6416 4.62276C11.6744 3.95739 11.8567 3.30795 12.175 2.72274C12.4933 2.13753 12.9394 1.63159 13.4802 1.24255ZM7.61558 16.6488C7.61558 16.7518 7.58504 16.8525 7.52781 16.9382C7.47058 17.0238 7.38923 17.0906 7.29406 17.13C7.19889 17.1694 7.09417 17.1797 6.99314 17.1596C6.89211 17.1395 6.79931 17.0899 6.72647 17.0171C6.65363 16.9443 6.60402 16.8514 6.58392 16.7504C6.56383 16.6494 6.57414 16.5447 6.61356 16.4495C6.65298 16.3543 6.71974 16.273 6.80539 16.2157C6.89104 16.1585 6.99174 16.128 7.09475 16.128C7.23288 16.128 7.36536 16.1828 7.46304 16.2805C7.56071 16.3782 7.61558 16.5107 7.61558 16.6488ZM7.65725 19.1436C7.76026 19.1436 7.86096 19.1741 7.94661 19.2314C8.03226 19.2886 8.09902 19.3699 8.13844 19.4651C8.17786 19.5603 8.18817 19.665 8.16808 19.766C8.14798 19.8671 8.09838 19.9599 8.02553 20.0327C7.9527 20.1056 7.85989 20.1552 7.75886 20.1753C7.65783 20.1954 7.55311 20.185 7.45794 20.1456C7.36277 20.1062 7.28142 20.0394 7.22419 19.9538C7.16696 19.8681 7.13642 19.7674 7.13642 19.6644C7.13642 19.596 7.14989 19.5283 7.17606 19.4651C7.20224 19.4019 7.2406 19.3445 7.28897 19.2961C7.33733 19.2478 7.39475 19.2094 7.45794 19.1832C7.52113 19.1571 7.58885 19.1436 7.65725 19.1436ZM15.0479 14.8259C15.0479 14.7229 15.0784 14.6222 15.1357 14.5365C15.1929 14.4509 15.2742 14.3841 15.3694 14.3447C15.4646 14.3053 15.5693 14.295 15.6703 14.3151C15.7714 14.3352 15.8642 14.3848 15.937 14.4576C16.0098 14.5304 16.0594 14.6232 16.0795 14.7243C16.0996 14.8253 16.0893 14.93 16.0499 15.0252C16.0105 15.1204 15.9437 15.2017 15.8581 15.2589C15.7724 15.3162 15.6717 15.3467 15.5687 15.3467C15.4306 15.3467 15.2981 15.2918 15.2004 15.1942C15.1027 15.0965 15.0479 14.964 15.0479 14.8259ZM10.5843 33.0551C10.5542 33.0374 10.5228 33.0217 10.4906 33.0082C10.736 32.7343 10.8747 32.3811 10.8812 32.0134C10.8814 31.6061 10.7225 31.2149 10.4384 30.923C10.1543 30.6312 9.76751 30.4618 9.36037 30.4509H8.80308C8.20146 30.4371 7.60898 30.5999 7.09893 30.9193C6.58887 31.2387 6.18362 31.7005 5.93329 32.2478C5.35609 31.89 4.67637 31.7343 4.001 31.8051C3.29881 31.8921 2.6451 32.2089 2.14162 32.7061L2.03746 32.8103C1.84056 33.0122 1.702 33.2637 1.63648 33.538C1.57095 33.8124 1.5809 34.0993 1.66527 34.3684C1.74964 34.6376 1.90529 34.8788 2.1157 35.0667C2.3261 35.2545 2.58343 35.3819 2.86037 35.4353L2.76663 35.6019C2.41617 36.2831 2.20482 37.0271 2.14491 37.7908C2.085 38.5545 2.17772 39.3224 2.41767 40.0499C2.71236 40.9637 3.2283 41.7907 3.91961 42.4571C4.61091 43.1235 5.45617 43.6088 6.38024 43.8698C7.30431 44.1309 8.27855 44.1595 9.21637 43.9533C10.1542 43.747 11.0265 43.3123 11.7558 42.6876C12.4851 42.063 13.0487 41.2678 13.3966 40.3728C13.7446 39.4779 13.866 38.5108 13.75 37.5576C13.6341 36.6044 13.2845 35.6946 12.7322 34.9091C12.1799 34.1236 11.4421 33.4867 10.5843 33.0551ZM8.77704 31.4561H9.33433C9.47064 31.4608 9.59968 31.5188 9.69371 31.6176C9.7893 31.7167 9.84173 31.8497 9.83954 31.9873C9.83722 32.0561 9.8213 32.1237 9.79269 32.1863C9.76408 32.2489 9.72336 32.3052 9.67288 32.3519C9.57374 32.4475 9.44078 32.5 9.30308 32.4978H8.92808C8.27486 32.3858 7.60735 32.3858 6.95412 32.4978C7.13516 32.1753 7.40037 31.9081 7.72143 31.7247C8.04249 31.5412 8.40734 31.4484 8.77704 31.4561ZM6.45933 33.6957C6.86043 33.5643 7.27734 33.4872 7.69892 33.4665L7.46454 34.2061C7.41199 34.3708 7.32285 34.5215 7.20379 34.6469C7.08472 34.7723 6.93883 34.8691 6.77704 34.9301C6.55458 35.017 6.31036 35.0316 6.07913 34.9717C5.84502 34.9139 5.63199 34.7911 5.46454 34.6176L5.19371 34.3311C5.57998 34.0548 6.00699 33.8404 6.45933 33.6957ZM2.75621 33.5238L2.86037 33.4249C3.19662 33.088 3.63375 32.8704 4.10517 32.8051C4.51775 32.7673 4.93201 32.8564 5.29267 33.0603C4.85908 33.2774 4.4548 33.5486 4.08954 33.8676C3.92547 33.9083 3.77475 33.9908 3.65204 34.1071L3.47496 34.2738C3.37357 34.3575 3.2443 34.3997 3.11308 34.392C2.98185 34.3844 2.85838 34.3274 2.76744 34.2324C2.67649 34.1375 2.62479 34.0118 2.6227 33.8803C2.62062 33.7489 2.66831 33.6215 2.75621 33.5238ZM9.41767 42.7999C8.40804 43.1338 7.31598 43.1219 6.31382 42.7663C5.31166 42.4106 4.45649 41.7313 3.88325 40.8356C3.31002 39.9399 3.05138 38.8789 3.14815 37.8199C3.24492 36.7609 3.69159 35.7643 4.41767 34.9874L4.71975 35.3051C5.02154 35.6262 5.40791 35.8554 5.83433 35.9665C6.00501 36.007 6.17975 36.028 6.35517 36.029C6.62418 36.0305 6.89103 35.981 7.14163 35.8832C7.44856 35.766 7.72507 35.581 7.95052 35.342C8.17598 35.103 8.34457 34.8162 8.44371 34.503L8.76142 33.5186C9.80968 33.7093 10.7643 34.2444 11.4742 35.039C12.184 35.8336 12.6084 36.8424 12.6801 37.9054C12.7519 38.9685 12.4669 40.0251 11.8703 40.9079C11.2736 41.7907 10.3995 42.4491 9.38642 42.779L9.41767 42.7999ZM11.501 37.0707C11.6564 37.5388 11.7179 38.033 11.6817 38.525C11.6456 39.0169 11.5127 39.4968 11.2906 39.9372C11.0684 40.3776 10.7615 40.7698 10.3873 41.0913C10.0132 41.4127 9.57922 41.657 9.11038 41.8103C9.05859 41.8181 9.00591 41.8181 8.95413 41.8103C8.81599 41.8317 8.67501 41.7973 8.56219 41.7148C8.44938 41.6323 8.37397 41.5083 8.35256 41.3702C8.33115 41.232 8.36549 41.091 8.44803 40.9782C8.53056 40.8654 8.65453 40.79 8.79267 40.7686C9.47469 40.5457 10.0404 40.0613 10.3656 39.4217C10.6907 38.782 10.7488 38.0395 10.527 37.3571C10.5007 37.2908 10.4883 37.2198 10.4906 37.1485C10.4929 37.0772 10.5098 37.0072 10.5402 36.9427C10.5707 36.8782 10.6141 36.8206 10.6677 36.7736C10.7213 36.7265 10.7841 36.691 10.852 36.6692C10.9199 36.6474 10.9916 36.6398 11.0625 36.6468C11.1335 36.6539 11.2023 36.6754 11.2646 36.7101C11.3269 36.7448 11.3815 36.792 11.4248 36.8486C11.4682 36.9053 11.4994 36.9702 11.5166 37.0394L11.501 37.0707ZM25.4593 12.7946C25.3461 12.7152 25.2059 12.684 25.0696 12.708C24.9334 12.7319 24.8122 12.809 24.7328 12.9222C24.6533 13.0355 24.6222 13.1757 24.6461 13.312C24.67 13.4482 24.7471 13.5694 24.8604 13.6488C25.1373 13.8434 25.3627 14.1026 25.517 14.4039C25.6712 14.7052 25.7498 15.0395 25.7458 15.378C25.4626 15.5356 25.2226 15.7606 25.0473 16.0332C24.8719 16.3058 24.7666 16.6174 24.7406 16.9405L24.6937 17.654C24.6416 18.3773 24.8341 19.0971 25.2403 19.6978C25.6465 20.2985 26.2427 20.7454 26.9333 20.9665H27.001C27.99 21.2879 29.0236 21.4514 30.0635 21.4509C30.9123 21.4497 31.7575 21.3412 32.5791 21.128C32.7944 21.0718 32.9875 20.9514 33.1325 20.7826C33.2776 20.6139 33.3677 20.405 33.3909 20.1837C33.4142 19.9624 33.3693 19.7393 33.2624 19.5441C33.1555 19.349 32.9916 19.1911 32.7927 19.0915L30.6364 18.0186C29.7064 17.5557 28.917 16.8526 28.35 15.9821C28.1809 15.7184 27.9504 15.4997 27.6783 15.3445C27.4062 15.1894 27.1005 15.1026 26.7875 15.0915C26.7481 14.6347 26.6088 14.1921 26.3793 13.7951C26.1497 13.3982 25.8357 13.0566 25.4593 12.7946ZM27.475 16.5915C28.1436 17.6185 29.0752 18.4476 30.1729 18.9926L32.3239 20.0655C32.3343 20.0689 32.3434 20.0755 32.3498 20.0844C32.3563 20.0933 32.3597 20.104 32.3597 20.115C32.3597 20.1259 32.3563 20.1366 32.3498 20.1455C32.3434 20.1544 32.3343 20.161 32.3239 20.1644C30.6838 20.5947 28.955 20.5496 27.3395 20.0342H27.2718C26.803 19.8831 26.3981 19.5796 26.1215 19.1719C25.845 18.7642 25.7128 18.2757 25.7458 17.7842L25.777 17.029C25.7891 16.8347 25.8624 16.6493 25.9864 16.4992C26.1103 16.3492 26.2786 16.2422 26.4671 16.1936C26.6556 16.145 26.8546 16.1574 27.0357 16.2289C27.2167 16.3003 27.3705 16.4273 27.475 16.5915ZM41.902 42.1124C41.7016 40.2235 40.9662 38.4311 39.7823 36.9457C39.6433 36.7715 39.4545 36.6438 39.2411 36.5799C39.0276 36.5159 38.7997 36.5187 38.5879 36.5878C38.3761 36.6569 38.1904 36.789 38.0557 36.9665C37.921 37.1441 37.8438 37.3585 37.8343 37.5811L37.7562 39.9821C37.7097 41.0206 37.386 42.0277 36.8187 42.8988C36.648 43.1635 36.5433 43.4653 36.5134 43.7789C36.4835 44.0925 36.5292 44.4087 36.6468 44.7009C36.2365 44.9178 35.8796 45.2234 35.6021 45.5955C35.3246 45.9675 35.1335 46.3968 35.0427 46.8519C35.0167 46.9873 35.0454 47.1274 35.1225 47.2416C35.1996 47.3558 35.3189 47.4348 35.4541 47.4613H35.5531C35.6749 47.4638 35.7938 47.4234 35.889 47.3473C35.9841 47.2711 36.0496 47.1641 36.0739 47.0446C36.1392 46.7198 36.2809 46.4152 36.4874 46.1562C36.694 45.8971 36.9593 45.691 37.2614 45.5551C37.5994 45.8138 38.0129 45.9546 38.4385 45.9561C38.6693 45.9539 38.8981 45.9135 39.1156 45.8363L39.7875 45.5551C40.4687 45.3094 41.0485 44.8436 41.4353 44.2314C41.822 43.6192 41.9936 42.8955 41.9229 42.1749L41.902 42.1124ZM39.4333 44.5967L38.7562 44.8415C38.5842 44.9055 38.3969 44.9164 38.2186 44.8728C38.0403 44.8291 37.8792 44.733 37.7562 44.5967C37.6197 44.4451 37.5371 44.2526 37.5211 44.0493C37.505 43.8459 37.5566 43.6429 37.6677 43.4717C38.3443 42.4453 38.7345 41.2568 38.7979 40.029L38.902 37.628C38.9018 37.6172 38.9053 37.6066 38.9119 37.598C38.9186 37.5895 38.9279 37.5835 38.9385 37.5811C38.944 37.5779 38.9503 37.5762 38.9567 37.5762C38.9631 37.5762 38.9694 37.5779 38.975 37.5811C40.0384 38.9154 40.6996 40.5252 40.8812 42.2217V42.2894C40.9335 42.7807 40.8192 43.2752 40.5566 43.6937C40.294 44.1121 39.8984 44.4302 39.4333 44.5967ZM25.5843 9.48735C25.8568 9.5569 26.1365 9.59362 26.4177 9.59672C26.6486 9.60941 26.8797 9.57536 27.0972 9.49661C27.3147 9.41785 27.514 9.29601 27.6833 9.13839C28.6937 8.12797 27.8291 5.98214 27.0427 5.20089C26.8264 4.98404 26.5695 4.81199 26.2866 4.6946C26.0037 4.57721 25.7005 4.51679 25.3942 4.51679C25.088 4.51679 24.7847 4.57721 24.5019 4.6946C24.219 4.81199 23.9621 4.98404 23.7458 5.20089C23.3091 5.63835 23.0639 6.23121 23.0639 6.84933C23.0639 7.46744 23.3091 8.0603 23.7458 8.49776C24.2662 8.97628 24.8983 9.31654 25.5843 9.48735ZM24.4802 5.93526C24.7238 5.69512 25.0521 5.56049 25.3942 5.56049C25.7363 5.56049 26.0647 5.69512 26.3083 5.93526C26.9073 6.53422 27.35 7.98735 26.9489 8.40401C26.7821 8.49827 26.5963 8.55377 26.4052 8.56639C26.214 8.57901 26.0225 8.54844 25.8448 8.47693C25.3399 8.35013 24.8723 8.10562 24.4802 7.76339C24.24 7.51976 24.1054 7.19141 24.1054 6.84933C24.1054 6.50724 24.24 6.17889 24.4802 5.93526ZM0.355166 11.0655C0.355166 10.9625 0.385713 10.8618 0.442943 10.7761C0.500172 10.6905 0.581515 10.6237 0.676685 10.5843C0.771855 10.5449 0.876577 10.5345 0.977609 10.5546C1.07864 10.5747 1.17144 10.6243 1.24428 10.6972C1.31712 10.77 1.36673 10.8628 1.38683 10.9639C1.40692 11.0649 1.39661 11.1696 1.35719 11.2648C1.31777 11.36 1.25101 11.4413 1.16536 11.4985C1.07971 11.5558 0.979011 11.5863 0.876 11.5863C0.737866 11.5863 0.60539 11.5314 0.507715 11.4338C0.41004 11.3361 0.355166 11.2036 0.355166 11.0655Z" fill="#F7C35F"/>
</svg>
