<svg width="60" height="60" viewBox="0 0 60 60" fill="none" xmlns="http://www.w3.org/2000/svg">
<g clip-path="url(#clip0_7_1482)">
<path d="M56 34C56 52 45 59 38 59C33 59 31 57 30 57C29 57 27 59 22 59C15 59 4 52 4 34C4 18 13 14 22 14H22.01C24.7311 13.9438 27.4393 14.3879 30 15.31H30.01C32.5707 14.3879 35.2789 13.9438 38 14C47 14 56 18 56 34Z" fill="#F44335"/>
<path d="M38 14C37.483 14 36.99 14.017 36.508 14.041C44.978 14.487 53 18.9 53 34C53 50.9 43.309 58.1 36.33 58.919C36.847 58.97 37.4 59 38 59C45 59 56 52 56 34C56 18 47 14 38 14Z" fill="#C81E1E"/>
<path d="M33.05 16.9199C32.1048 16.2635 31.0841 15.723 30.01 15.3099L33.05 16.9199Z" fill="#F44335"/>
<path d="M30 10.38V15.31C27.4393 14.3878 24.7311 13.9438 22.01 14H22C20.7758 13.5538 19.661 12.8515 18.73 11.94C14.99 8.11996 16.24 1.07996 16.24 1.07996C16.24 1.07996 23.56 0.239961 27.31 4.05996C28.8618 5.82325 29.805 8.03916 30 10.38Z" fill="#60A917"/>
<path d="M27.31 4.0599C23.968 0.659901 17.81 0.951901 16.5 1.0599C18.934 1.2349 22.191 1.9049 24.31 4.0599C25.8618 5.82319 26.805 8.0391 27 10.3799V14.4629C28.0221 14.6601 29.0257 14.9434 30 15.3099V10.3799C29.805 8.0391 28.8618 5.82319 27.31 4.0599Z" fill="#549414"/>
<path d="M8.233 31C8.19086 31.0003 8.14876 30.9977 8.107 30.992C7.84374 30.9591 7.60437 30.8228 7.44157 30.6133C7.27878 30.4038 7.2059 30.1382 7.239 29.875C8.327 21.211 13.155 17 22 17C22.5523 17 23 17.4477 23 18C23 18.5523 22.5523 19 22 19C14.236 19 10.176 22.535 9.224 30.125C9.16106 30.6246 8.73651 30.9994 8.233 31Z" fill="#F5F5F5"/>
<path d="M8 35C8.55228 35 9 34.5523 9 34C9 33.4477 8.55228 33 8 33C7.44772 33 7 33.4477 7 34C7 34.5523 7.44772 35 8 35Z" fill="#F5F5F5"/>
<path d="M3 34C3 52.941 14.654 60 22 60C24.4824 60.0403 26.9374 59.4771 29.154 58.359C29.4225 58.2213 29.6998 58.1013 29.984 58C30.2814 58.0938 30.5699 58.2139 30.846 58.359C33.0626 59.4771 35.5176 60.0403 38 60C45.346 60 57 52.941 57 34C57 16.643 46.667 13 38 13C35.6334 12.9773 33.2759 13.2955 31 13.945V8.99996C31 7.11896 31 3.61795 34.447 1.89995C34.7668 1.74026 34.977 1.4221 34.9986 1.06534C35.0202 0.708578 34.8498 0.367406 34.5516 0.170341C34.2534 -0.0267244 33.8728 -0.0497437 33.553 0.109954C31.4782 1.10908 29.9575 2.9821 29.406 5.21795C29.0245 4.54448 28.5598 3.9216 28.023 3.36395C23.978 -0.761046 16.444 0.048954 16.126 0.085954C15.6869 0.136647 15.3331 0.469666 15.256 0.904954C15.201 1.21295 13.962 8.50496 18.019 12.644C18.212 12.838 18.419 13.02 18.637 13.198C10.872 14.149 3 18.85 3 34ZM17.129 2.02095C19.018 1.93995 23.913 2.02695 26.595 4.75895C27.9945 6.34614 28.8387 8.34606 29 10.456V13.94C26.7951 13.3151 24.5137 13.0014 22.222 13.008C21.1847 12.615 20.2392 12.0133 19.444 11.24C16.8 8.53596 16.95 3.85495 17.129 2.02095ZM22 15C24.5894 14.9486 27.1667 15.3652 29.608 16.23H29.618L29.648 16.24C30.6468 16.6254 31.5959 17.129 32.475 17.74C32.767 17.9522 33.1508 17.9906 33.4791 17.8404C33.8074 17.6901 34.0292 17.3746 34.0595 17.0148C34.0897 16.655 33.9236 16.3069 33.625 16.104C33.344 15.904 33.051 15.717 32.749 15.537C34.4744 15.1664 36.2353 14.9863 38 15C49.28 15 55 21.393 55 34C55 51.484 44.573 58 38 58C35.813 58.0405 33.6496 57.5429 31.7 56.551C31.1798 56.2466 30.5998 56.0586 30 56C29.4002 56.0586 28.8202 56.2466 28.3 56.551C26.3504 57.5429 24.187 58.0405 22 58C15.427 58 5 51.484 5 34C5 21.393 10.72 15 22 15Z" fill="black"/>
</g>
<defs>
<clipPath id="clip0_7_1482">
<rect width="60" height="60" fill="white"/>
</clipPath>
</defs>
</svg>
