<svg width="60" height="60" viewBox="0 0 60 60" fill="none" xmlns="http://www.w3.org/2000/svg">
<g clip-path="url(#clip0_7_1315)">
<mask id="mask0_7_1315" style="mask-type:luminance" maskUnits="userSpaceOnUse" x="0" y="0" width="60" height="60">
<path d="M0 3.8147e-06H60V60H0V3.8147e-06Z" fill="white"/>
</mask>
<g mask="url(#mask0_7_1315)">
<path d="M19.2107 4.33231C19.0731 4.23024 18.8864 4.23024 18.7489 4.33231C16.2087 6.2168 14.4742 9.99926 14.4742 14.3588C14.4742 18.7181 16.2087 22.5007 18.7489 24.3851C18.8864 24.487 19.0731 24.487 19.2107 24.3851C21.7509 22.5007 23.4854 18.7181 23.4854 14.3588C23.4854 9.99926 21.7509 6.2168 19.2107 4.33231Z" fill="#09A76D"/>
<path d="M19.2107 4.33231C19.0731 4.23024 18.8864 4.23024 18.7489 4.33231C16.2087 6.2168 14.4742 9.99926 14.4742 14.3588C14.4742 18.7181 16.2087 22.5007 18.7489 24.3851C18.8864 24.487 19.0731 24.487 19.2107 24.3851C21.7509 22.5007 23.4854 18.7181 23.4854 14.3588C23.4854 9.99926 21.7509 6.2168 19.2107 4.33231Z" stroke="black" stroke-width="1.81641" stroke-miterlimit="10" stroke-linecap="round" stroke-linejoin="round"/>
<path d="M5.68844 7.10567C5.5191 7.13074 5.38703 7.26293 5.36195 7.43227C4.89824 10.5608 6.34644 14.462 9.42906 17.5446C12.5117 20.6271 16.4127 22.0753 19.5414 21.6117C19.7107 21.5866 19.8428 21.4545 19.8679 21.2851C20.3316 18.1564 18.8834 14.2554 15.8008 11.1729C12.7182 8.09027 8.81711 6.64195 5.68844 7.10567Z" fill="#02905D"/>
<path d="M5.68844 7.10566C5.5191 7.13074 5.38703 7.26293 5.36195 7.43227C4.89824 10.5608 6.34644 14.462 9.42906 17.5446C12.5117 20.6271 16.4127 22.0753 19.5414 21.6117C19.7107 21.5866 19.8428 21.4545 19.8679 21.2851C20.3316 18.1564 18.8834 14.2554 15.8008 11.1729C12.7182 8.09027 8.81711 6.64195 5.68844 7.10566Z" stroke="black" stroke-width="1.81641" stroke-miterlimit="10" stroke-linecap="round" stroke-linejoin="round"/>
<path d="M32.5977 7.43223C32.5726 7.26289 32.4405 7.13082 32.2712 7.10563C29.1425 6.64203 25.2415 8.09024 22.1589 11.1729C19.0762 14.2554 17.628 18.1565 18.0917 21.2851C18.1168 21.4545 18.2489 21.5866 18.4182 21.6117C21.5469 22.0754 25.448 20.6272 28.5306 17.5446C31.6132 14.462 33.0614 10.5609 32.5977 7.43223Z" fill="#02905D"/>
<path d="M26.0273 8.33856C24.6766 9.02645 23.3559 9.97578 22.1589 11.1729C19.0764 14.2555 17.628 18.1565 18.0917 21.2852C18.1168 21.4545 18.249 21.5866 18.4182 21.6117C21.547 22.0754 25.4481 20.6272 28.5306 17.5446C31.6132 14.462 33.0614 10.5609 32.5977 7.43223C32.5727 7.26289 32.4406 7.13082 32.2712 7.10563C31.5296 6.99582 30.7444 6.99465 29.9371 7.0959" stroke="black" stroke-width="1.81641" stroke-miterlimit="10" stroke-linecap="round" stroke-linejoin="round"/>
<path d="M22.5797 17.7807C22.4395 17.6766 22.3867 17.4919 22.4506 17.3293C23.2869 15.2031 25.5698 13.2671 28.5864 12.4041C31.6029 11.541 34.5643 11.9766 36.3987 13.3385C36.5388 13.4427 36.5917 13.6274 36.5278 13.7899C35.6915 15.9162 33.4085 17.8521 30.3921 18.7152C27.3756 19.5783 24.4141 19.1428 22.5797 17.7807Z" fill="#09A76D"/>
<path d="M15.3799 17.7807C15.5201 17.6766 15.5729 17.4919 15.5091 17.3293C14.6727 15.2031 12.3898 13.2671 9.37326 12.4041C6.35674 11.541 3.39529 11.9766 1.56096 13.3385C1.4208 13.4427 1.36795 13.6274 1.43181 13.7899C2.26818 15.9162 4.55111 17.8521 7.56752 18.7152C10.584 19.5783 13.5455 19.1428 15.3799 17.7807Z" fill="#09A76D"/>
<path d="M22.5797 17.7807C22.4395 17.6766 22.3867 17.4919 22.4506 17.3293C23.2869 15.2031 25.5698 13.2671 28.5864 12.4041C31.6029 11.541 34.5643 11.9766 36.3987 13.3385C36.5388 13.4427 36.5917 13.6274 36.5278 13.7899C35.6915 15.9162 33.4085 17.8521 30.3921 18.7152C27.3756 19.5783 24.4141 19.1428 22.5797 17.7807Z" stroke="black" stroke-width="1.81641" stroke-miterlimit="10" stroke-linecap="round" stroke-linejoin="round"/>
<path d="M15.3799 17.7807C15.5201 17.6766 15.5729 17.4919 15.5091 17.3293C14.6727 15.2031 12.3898 13.2671 9.37326 12.4041C6.35674 11.541 3.39529 11.9766 1.56096 13.3385C1.4208 13.4427 1.36795 13.6274 1.43181 13.7899C2.26818 15.9162 4.55111 17.8521 7.56752 18.7152C10.584 19.5783 13.5455 19.1428 15.3799 17.7807Z" stroke="black" stroke-width="1.81641" stroke-miterlimit="10" stroke-linecap="round" stroke-linejoin="round"/>
<path d="M23.9314 51.4893L35.8629 30.0811C39.3988 23.7369 34.812 15.9295 27.5489 15.9295H10.4107C3.14764 15.9295 -1.43919 23.7369 2.0967 30.0811L14.0281 51.4893C16.1899 55.368 21.7697 55.368 23.9314 51.4893Z" fill="#FB2B3A"/>
<path d="M20.1805 51.4893L8.24906 30.0811C4.71316 23.7368 9.29988 15.9294 16.563 15.9294H10.4107C3.14754 15.9294 -1.43918 23.7368 2.09672 30.0811L14.0282 51.4893C15.7091 54.5051 19.4557 55.1748 22.056 53.5008C21.312 53.0219 20.6614 52.3521 20.1805 51.4893Z" fill="#E41F2D"/>
<path d="M23.9314 51.4893L35.8629 30.0811C39.3988 23.7369 34.8121 15.9295 27.5489 15.9295H10.4107C3.14764 15.9295 -1.43919 23.7369 2.0967 30.0811L14.0281 51.4893C16.1899 55.368 21.7697 55.368 23.9314 51.4893Z" stroke="black" stroke-width="1.81641" stroke-miterlimit="10" stroke-linecap="round" stroke-linejoin="round"/>
<path d="M7.8233 26.9812V28.5216" stroke="black" stroke-width="1.81641" stroke-miterlimit="10" stroke-linecap="round" stroke-linejoin="round"/>
<path d="M15.2609 26.9812V28.5216" stroke="black" stroke-width="1.81641" stroke-miterlimit="10" stroke-linecap="round" stroke-linejoin="round"/>
<path d="M22.6987 26.9812V28.5216" stroke="black" stroke-width="1.81641" stroke-miterlimit="10" stroke-linecap="round" stroke-linejoin="round"/>
<path d="M30.1363 26.9812V28.5216" stroke="black" stroke-width="1.81641" stroke-miterlimit="10" stroke-linecap="round" stroke-linejoin="round"/>
<path d="M11.5422 21.2599V22.8002" stroke="black" stroke-width="1.81641" stroke-miterlimit="10" stroke-linecap="round" stroke-linejoin="round"/>
<path d="M18.9798 21.2599V22.8002" stroke="black" stroke-width="1.81641" stroke-miterlimit="10" stroke-linecap="round" stroke-linejoin="round"/>
<path d="M26.4174 21.2599V22.8002" stroke="black" stroke-width="1.81641" stroke-miterlimit="10" stroke-linecap="round" stroke-linejoin="round"/>
<path d="M11.5422 33.4176V34.9579" stroke="black" stroke-width="1.81641" stroke-miterlimit="10" stroke-linecap="round" stroke-linejoin="round"/>
<path d="M18.9798 33.4176V34.9579" stroke="black" stroke-width="1.81641" stroke-miterlimit="10" stroke-linecap="round" stroke-linejoin="round"/>
<path d="M26.4174 33.4176V34.9579" stroke="black" stroke-width="1.81641" stroke-miterlimit="10" stroke-linecap="round" stroke-linejoin="round"/>
<path d="M15.1179 39.458V40.9983" stroke="black" stroke-width="1.81641" stroke-miterlimit="10" stroke-linecap="round" stroke-linejoin="round"/>
<path d="M22.5556 39.458V40.9983" stroke="black" stroke-width="1.81641" stroke-miterlimit="10" stroke-linecap="round" stroke-linejoin="round"/>
<path d="M18.8367 46.0044V47.5448" stroke="black" stroke-width="1.81641" stroke-miterlimit="10" stroke-linecap="round" stroke-linejoin="round"/>
<path d="M53.0269 25.1458C53.0061 25.0054 52.8966 24.8958 52.7561 24.875C50.1623 24.4906 46.9279 25.6913 44.3721 28.247C41.8165 30.8028 40.6158 34.0372 41.0002 36.631C41.0211 36.7715 41.1305 36.8809 41.271 36.9017C43.8647 37.2862 47.0992 36.0855 49.655 33.5297C52.2106 30.974 53.4113 27.7397 53.0269 25.1458Z" fill="#09A76D"/>
<path d="M53.0269 25.1458C53.0061 25.0054 52.8966 24.8958 52.7561 24.875C50.1623 24.4906 46.9279 25.6913 44.3721 28.247C41.8165 30.8028 40.6158 34.0372 41.0002 36.631C41.0211 36.7715 41.1305 36.8809 41.271 36.9017C43.8647 37.2862 47.0992 36.0855 49.655 33.5297C52.2106 30.974 53.4113 27.7397 53.0269 25.1458Z" stroke="black" stroke-width="1.81641" stroke-miterlimit="10" stroke-linecap="round" stroke-linejoin="round"/>
<path d="M43.4735 18.8442C43.3594 18.7596 43.2046 18.7596 43.0906 18.8442C40.9846 20.4065 39.5466 23.5426 39.5466 27.157C39.5466 30.7713 40.9846 33.9074 43.0906 35.4697C43.2046 35.5542 43.3594 35.5542 43.4735 35.4697C45.5796 33.9074 47.0175 30.7713 47.0175 27.157C47.0175 23.5426 45.5796 20.4065 43.4735 18.8442Z" fill="#02905D"/>
<path d="M45.3385 20.9084C44.8114 20.071 44.1803 19.3687 43.4735 18.8442C43.3594 18.7597 43.2046 18.7597 43.0906 18.8442C40.9846 20.4066 39.5466 23.5426 39.5466 27.1571C39.5466 30.7713 40.9846 33.9074 43.0906 35.4697C43.2046 35.5544 43.3594 35.5544 43.4735 35.4697C45.5796 33.9074 47.0175 30.7713 47.0175 27.1571C47.0175 26.333 46.942 25.5341 46.8015 24.7728" stroke="black" stroke-width="1.81641" stroke-miterlimit="10" stroke-linecap="round" stroke-linejoin="round"/>
<path d="M59.0577 34.8112C59.1423 34.6972 59.1423 34.5424 59.0577 34.4283C57.4954 32.3224 54.3593 30.8843 50.7449 30.8843C47.1307 30.8843 43.9946 32.3224 42.4322 34.4283C42.3476 34.5424 42.3476 34.6972 42.4322 34.8112C43.9946 36.9172 47.1307 38.3552 50.7449 38.3552C54.3593 38.3552 57.4954 36.9172 59.0577 34.8112Z" fill="#09A76D"/>
<path d="M59.0577 34.8112C59.1423 34.6972 59.1423 34.5424 59.0577 34.4283C57.4954 32.3224 54.3593 30.8843 50.7449 30.8843C47.1307 30.8843 43.9946 32.3224 42.4322 34.4283C42.3476 34.5424 42.3476 34.6972 42.4322 34.8112C43.9946 36.9172 47.1307 38.3552 50.7449 38.3552C54.3593 38.3552 57.4954 36.9172 59.0577 34.8112Z" stroke="black" stroke-width="1.81641" stroke-miterlimit="10" stroke-linecap="round" stroke-linejoin="round"/>
<path d="M47.1177 35.0051C47.0965 34.8619 47.1739 34.7225 47.3066 34.6648C49.0436 33.9086 51.5168 34.1119 53.7912 35.3743C56.0656 36.6368 57.5464 38.6283 57.8233 40.5022C57.8445 40.6454 57.7671 40.7848 57.6344 40.8425C55.8977 41.5988 53.4243 41.3953 51.1499 40.1329C48.8755 38.8704 47.3947 36.879 47.1177 35.0051Z" fill="#02905D"/>
<path d="M47.1177 35.0051C47.0965 34.8619 47.1739 34.7225 47.3066 34.6648C49.0436 33.9086 51.5168 34.1119 53.7912 35.3743C56.0656 36.6368 57.5464 38.6283 57.8233 40.5022C57.8445 40.6454 57.7671 40.7848 57.6344 40.8425C55.8977 41.5988 53.4243 41.3953 51.1499 40.1329C48.8755 38.8704 47.3947 36.879 47.1177 35.0051Z" stroke="black" stroke-width="1.81641" stroke-miterlimit="10" stroke-linecap="round" stroke-linejoin="round"/>
<path d="M42.897 30.7841C43.0402 30.8053 43.1794 30.728 43.2371 30.5952C43.9934 28.8584 43.79 26.3851 42.5276 24.1108C41.2651 21.8364 39.2737 20.3555 37.3998 20.0786C37.2565 20.0574 37.1173 20.1347 37.0595 20.2675C36.3032 22.0043 36.5067 24.4776 37.7691 26.7519C39.0315 29.0263 41.023 30.5072 42.897 30.7841Z" fill="#09A76D"/>
<path d="M42.897 30.7841C43.0402 30.8053 43.1794 30.728 43.2371 30.5952C43.9934 28.8584 43.79 26.3851 42.5276 24.1108C41.2651 21.8364 39.2737 20.3555 37.3998 20.0786C37.2565 20.0574 37.1173 20.1347 37.0595 20.2675C36.3032 22.0043 36.5067 24.4776 37.7691 26.7519C39.0315 29.0263 41.023 30.5072 42.897 30.7841Z" stroke="black" stroke-width="1.81641" stroke-miterlimit="10" stroke-linecap="round" stroke-linejoin="round"/>
<path d="M28.1486 55.5591L47.6939 50.0034C53.4862 48.357 55.3743 41.0908 51.1163 36.8328L41.0691 26.7856C36.8111 22.5276 29.5449 24.4157 27.8984 30.208L22.3428 49.7533C21.3361 53.2945 24.6073 56.5657 28.1486 55.5591Z" fill="#FB2B3A"/>
<path d="M27.2551 54.0093L32.8108 34.4639C34.1944 29.5962 39.5468 27.4864 43.7474 29.464L41.0691 26.7855C36.8111 22.5275 29.5449 24.4157 27.8984 30.208L22.3428 49.7534C21.4375 52.938 23.9924 55.9024 27.0917 55.7352C27.041 55.1795 27.0876 54.5984 27.2551 54.0093Z" fill="#E41F2D"/>
<path d="M42.3709 51.5165L47.694 50.0034C53.4863 48.357 55.3743 41.0908 51.1163 36.8328L41.0691 26.7856C36.8111 22.5276 29.5449 24.4157 27.8984 30.208L22.3428 49.7533C21.3362 53.2945 24.6073 56.5657 28.1486 55.5591L38.4229 52.6387" stroke="black" stroke-width="1.81641" stroke-miterlimit="10" stroke-linecap="round" stroke-linejoin="round"/>
<path d="M33.0731 31.7478L32.17 32.6509" stroke="black" stroke-width="1.81641" stroke-miterlimit="10" stroke-linecap="round" stroke-linejoin="round"/>
<path d="M37.4334 36.1082L36.5303 37.0112" stroke="black" stroke-width="1.81641" stroke-miterlimit="10" stroke-linecap="round" stroke-linejoin="round"/>
<path d="M41.7937 40.4685L40.8908 41.3716" stroke="black" stroke-width="1.81641" stroke-miterlimit="10" stroke-linecap="round" stroke-linejoin="round"/>
<path d="M46.1541 44.8288L45.2511 45.7318" stroke="black" stroke-width="1.81641" stroke-miterlimit="10" stroke-linecap="round" stroke-linejoin="round"/>
<path d="M38.6073 30.5739L37.7043 31.4769" stroke="black" stroke-width="1.81641" stroke-miterlimit="10" stroke-linecap="round" stroke-linejoin="round"/>
<path d="M42.9676 34.9342L42.0646 35.8373" stroke="black" stroke-width="1.81641" stroke-miterlimit="10" stroke-linecap="round" stroke-linejoin="round"/>
<path d="M47.328 39.2946L46.425 40.1976" stroke="black" stroke-width="1.81641" stroke-miterlimit="10" stroke-linecap="round" stroke-linejoin="round"/>
<path d="M31.4798 37.7013L30.5769 38.6044" stroke="black" stroke-width="1.81641" stroke-miterlimit="10" stroke-linecap="round" stroke-linejoin="round"/>
<path d="M35.8403 42.0617L34.9373 42.9647" stroke="black" stroke-width="1.81641" stroke-miterlimit="10" stroke-linecap="round" stroke-linejoin="round"/>
<path d="M40.2006 46.422L39.2975 47.3251" stroke="black" stroke-width="1.81641" stroke-miterlimit="10" stroke-linecap="round" stroke-linejoin="round"/>
<path d="M30.035 43.3388L29.132 44.2418" stroke="black" stroke-width="1.81641" stroke-miterlimit="10" stroke-linecap="round" stroke-linejoin="round"/>
<path d="M34.3954 47.6991L33.4923 48.6022" stroke="black" stroke-width="1.81641" stroke-miterlimit="10" stroke-linecap="round" stroke-linejoin="round"/>
<path d="M28.3774 49.3568L27.4743 50.2599" stroke="black" stroke-width="1.81641" stroke-miterlimit="10" stroke-linecap="round" stroke-linejoin="round"/>
</g>
</g>
<defs>
<clipPath id="clip0_7_1315">
<rect width="60" height="60" fill="white"/>
</clipPath>
</defs>
</svg>
