<svg width="215" height="11" viewBox="0 0 215 11" fill="none" xmlns="http://www.w3.org/2000/svg"><path fill-rule="evenodd" clip-rule="evenodd" d="M38.223 3.67c-2.347.44-4.55 1.076-6.537 1.967-.216.099-.282.236-.301.295a.36.36 0 0 0 .032.295.38.38 0 0 0 .197.177c.079.033.282.06.551.053.459-.007 1.167-.06 1.508-.06 1.167.014 2.334.007 3.501.027 3.718.066 4.367.118 9.147.079 5.58-.046 11.172-.125 16.758-.243-17.755.984-35.484 2.131-53.121 3.2a.36.36 0 0 0-.334.38.356.356 0 0 0 .38.341c41.155-2.492 82.763-5.429 124.233-5.619l6.117.138c12.28.288 24.567.636 36.835 1.173 3.992.177 7.985.374 11.985.558l3.554.157c.957.04 3.422.184 3.77.19.314.007.393-.275.399-.288a.34.34 0 0 0-.072-.295.33.33 0 0 0-.19-.132c-.019 0-.111-.013-.301-.032a648 648 0 0 0-29.655-1.718c1.33.013 2.661.02 3.992.033 10.261.078 20.549.36 30.803 0 2.334-.079 4.675-.17 7.002-.282 1.567-.072 5.6.02 6.17-.151.262-.072.321-.256.328-.348a.38.38 0 0 0-.131-.327c-.053-.053-.217-.138-.525-.204-10.064-2.183-21.84-1.567-32.087-2.176-27.833-1.672-55.567-.558-83.393.459-24.016.878-48.033.924-72.036 2.117C18.016 3.867 8.955 3.37.294 5.021a.363.363 0 0 0-.289.42c.04.196.23.327.426.288 8.622-1.646 17.65-1.14 26.403-1.574 3.797-.19 7.593-.347 11.39-.485m74.253.485c-14.707-.229-29.413-.347-44.132-.275-10.097.046-24.81-1.875-34.841 1.797h.183c1.167.013 2.334 0 3.501.026 3.711.065 4.36.118 9.127.078a1480 1480 0 0 0 36.592-.773c9.867-.328 19.722-.623 29.57-.853m99.482-.845c-9.514-1.666-20.299-1.167-29.773-1.731-27.807-1.672-55.521-.558-83.32.459-12.425.459-24.843.688-37.255.97 2.38.092 4.656.157 6.734.15 21.04-.104 42.073.178 63.113.624a1700 1700 0 0 1 39.221-.164c10.254.085 20.522.36 30.776.006a480 480 0 0 0 6.989-.282c.794-.032 2.23-.026 3.515-.032" fill="#f7c35f"/></svg>